{
DisplayStrings = (
"",
/uniF015,
"",
"",
"",
/uniF005,
"",
"",
/uniF029,
/uniF030,
/uniF031,
/uniF032,
/uniF035,
/uniF036,
/uniF036,
/uniF037,
/uniF038,
"",
/uniF009,
/uniF026,
/uniF025,
"",
/uniF014,
/uniF015,
"",
/uniF025,
"",
"",
"",
"",
/uniF023,
"",
"",
"",
/uniF023,
"",
"",
"",
/uniF014,
"",
"",
"",
"",
"",
/uniF037,
"",
"",
/uniF006,
"",
"",
"",
"",
/uniF033,
/uniF031,
/uniF027,
/uniF025,
/uniF023,
/uniF014,
/uniF016,
/uniF018
);
copyright = _null_name_substitute_;
customParameters = (
{
name = glyphOrder;
value = (
    ".notdef",
    uni0000,
    uni000D,
    CR,
    space,
    o,
    uni00A0,
    dieresis,
    copyright,
    registered,
    acute,
    AE,
    Iacute,
    uni2000,
    uni2001,
    enspace,
    uni2003,
    uni2004,
    uni2005,
    uni2006,
    uni2007,
    uni2008,
    uni2009,
    uni200A,
    uni202F,
    guilsinglright,
    uni205F,
    trademark,
    infinity,
    uniE000,
    uniF000,
    uniF001,
    uniF002,
    uniF003,
    uniF004,
    uniF005,
    uniF006,
    uniF007,
    uniF008,
    uniF009,
    uniF00A,
    uniF00B,
    uniF00C,
    uniF00D,
    uniF00E,
    uniF010,
    uniF011,
    uniF012,
    uniF013,
    uniF014,
    uniF015,
    uniF016,
    uniF017,
    uniF018,
    uniF019,
    uniF01A,
    uniF01B,
    uniF01C,
    uniF01D,
    uniF01E,
    uniF021,
    uniF022,
    uniF023,
    uniF024,
    uniF025,
    uniF026,
    uniF027,
    uniF028,
    uniF029,
    uniF02A,
    uniF02B,
    uniF02C,
    uniF02D,
    uniF02E,
    uniF02F,
    uniF030,
    uniF031,
    uniF032,
    uniF033,
    uniF034,
    uniF035,
    uniF036,
    uniF037,
    uniF038,
    uniF039,
    uniF03A,
    uniF03B,
    uniF03C,
    uniF03D,
    uniF03E,
    uniF040,
    uniF041,
    uniF042,
    uniF043,
    uniF044,
    uniF045,
    uniF046,
    uniF047,
    uniF048,
    uniF049,
    uniF04A,
    uniF04B,
    uniF04C,
    uniF04D,
    uniF04E,
    uniF050,
    uniF051,
    uniF052,
    uniF053,
    uniF054,
    uniF055,
    uniF056,
    uniF057,

glyphs = (
{
glyphname = uniF000;
lastChange = "2013-04-28 00:07:41 +0000";
layers = (
{
layerId = "42DB7337-2365-47C1-9F22-9A1F4C2C0B2F";
name = Regular;
paths = (
{
closed = 1;
nodes = (
"975 1100 LINE SMOOTH",
"959 1100 OFFCURVE",
"944 1084 OFFCURVE",
"944 1069 CURVE SMOOTH",
"944 977 LINE SMOOTH",
"944 946 OFFCURVE",
"959 931 OFFCURVE",
"975 931 CURVE SMOOTH",
"1082 931 LINE SMOOTH",
"1098 931 OFFCURVE",
"1113 946 OFFCURVE",
"1113 977 CURVE SMOOTH",
"1113 1069 LINE SMOOTH",
"1113 1084 OFFCURVE",
"1098 1100 OFFCURVE",
"1082 1100 CURVE SMOOTH"
);
},
{
closed = 1;
nodes = (
"1036 606 OFFCURVE",
"929 483 OFFCURVE",
"774 483 CURVE SMOOTH",
"619 483 OFFCURVE",
"496 606 OFFCURVE",
"496 761 CURVE SMOOTH",
"496 792 OFFCURVE",
"496 808 OFFCURVE",
"511 838 CURVE",
"435 838 LINE",
"435 452 LINE SMOOTH",
"435 437 OFFCURVE",
"450 421 OFFCURVE",
"465 421 CURVE SMOOTH",
"1082 421 LINE SMOOTH",
"1098 421 OFFCURVE",
"1113 437 OFFCURVE",
"1113 452 CURVE SMOOTH",
"1113 838 LINE",
"1036 838 LINE",
"1036 808 OFFCURVE",
"1036 792 OFFCURVE",
"1036 761 CURVE SMOOTH"
);
},
{
closed = 1;
nodes = (
"171 1532 LINE SMOOTH",
"79 1532 OFFCURVE",
"2 1455 OFFCURVE",
"2 1363 CURVE SMOOTH",
"2 158 LINE SMOOTH",
"2 66 OFFCURVE",
"79 4 OFFCURVE",
"171 4 CURVE SMOOTH",
"1376 4 LINE SMOOTH",
"1469 4 OFFCURVE",
"1530 66 OFFCURVE",
"1530 158 CURVE SMOOTH",
"1530 1363 LINE SMOOTH",
"1530 1455 OFFCURVE",
"1469 1532 OFFCURVE",
"1376 1532 CURVE SMOOTH"
);
},
{
closed = 1;
nodes = (
"1222 360 OFFCURVE",
"1175 314 OFFCURVE",
"1113 314 CURVE SMOOTH",
"435 314 LINE SMOOTH",
"373 314 OFFCURVE",
"327 360 OFFCURVE",
"327 421 CURVE SMOOTH",
"327 1100 LINE SMOOTH",
"327 1161 OFFCURVE",
"373 1207 OFFCURVE",
"435 1207 CURVE SMOOTH",
"1113 1207 LINE SMOOTH",
"1175 1207 OFFCURVE",
"1222 1161 OFFCURVE",
"1222 1100 CURVE SMOOTH",
"1222 421 LINE SMOOTH"
);
},
{
closed = 1;
nodes = (
"867 590 OFFCURVE",
"944 667 OFFCURVE",
"944 761 CURVE SMOOTH",
"944 854 OFFCURVE",
"867 931 OFFCURVE",
"774 931 CURVE SMOOTH",
"681 931 OFFCURVE",
"604 854 OFFCURVE",
"604 761 CURVE SMOOTH",
"604 667 OFFCURVE",
"681 590 OFFCURVE",
"774 590 CURVE SMOOTH"
);
}
);
width = 1536;
}
);
unicode = F000;
},
{
glyphname = uniF001;
lastChange = "2013-04-27 22:25:03 +0000";
layers = (
{
layerId = "42DB7337-2365-47C1-9F22-9A1F4C2C0B2F";
name = Regular;
paths = (
{
closed = 1;
nodes = (
"1213 885 LINE",
"1224 853 OFFCURVE",
"1235 808 OFFCURVE",
"1235 775 CURVE SMOOTH",
"1235 531 OFFCURVE",
"1036 343 OFFCURVE",
"804 343 CURVE SMOOTH",
"561 343 OFFCURVE",
"362 531 OFFCURVE",
"362 775 CURVE SMOOTH",
"362 808 OFFCURVE",
"374 853 OFFCURVE",
"385 885 CURVE",
"262 885 LINE",
"262 290 LINE SMOOTH",
"262 256 OFFCURVE",
"284 234 OFFCURVE",
"318 234 CURVE SMOOTH",
"1291 234 LINE SMOOTH",
"1313 234 OFFCURVE",
"1336 256 OFFCURVE",
"1336 290 CURVE SMOOTH",
"1336 885 LINE"
);
},
{
closed = 1;
nodes = (
"1336 1294 OFFCURVE",
"1313 1317 OFFCURVE",
"1291 1317 CURVE SMOOTH",
"1126 1317 LINE SMOOTH",
"1092 1317 OFFCURVE",
"1070 1294 OFFCURVE",
"1070 1260 CURVE SMOOTH",
"1070 1095 LINE SMOOTH",
"1070 1061 OFFCURVE",
"1092 1042 OFFCURVE",
"1126 1042 CURVE SMOOTH",
"1291 1042 LINE SMOOTH",
"1313 1042 OFFCURVE",
"1336 1061 OFFCURVE",
"1336 1095 CURVE SMOOTH",
"1336 1260 LINE SMOOTH"
);
},
{
closed = 1;
nodes = (
"649 1042 OFFCURVE",
"528 919 OFFCURVE",
"528 775 CURVE SMOOTH",
"528 621 OFFCURVE",
"649 498 OFFCURVE",
"804 498 CURVE SMOOTH",
"948 498 OFFCURVE",
"1070 621 OFFCURVE",
"1070 775 CURVE SMOOTH",
"1070 919 OFFCURVE",
"948 1042 OFFCURVE",
"804 1042 CURVE SMOOTH"
);
},
{
closed = 1;
nodes = (
"262 68 LINE SMOOTH",
"175 68 OFFCURVE",
"96 144 OFFCURVE",
"96 234 CURVE SMOOTH",
"96 1317 LINE SMOOTH",
"96 1406 OFFCURVE",
"175 1471 OFFCURVE",
"262 1471 CURVE SMOOTH",
"1336 1471 LINE SMOOTH",
"1434 1471 OFFCURVE",
"1501 1406 OFFCURVE",
"1501 1317 CURVE SMOOTH",
"1501 234 LINE SMOOTH",
"1501 144 OFFCURVE",
"1434 68 OFFCURVE",
"1336 68 CURVE SMOOTH"
);
}
);
width = 1597;
}
);
unicode = F001;
},
{
glyphname = uniF002;
lastChange = "2013-04-28 00:03:27 +0000";
layers = (
{
layerId = "42DB7337-2365-47C1-9F22-9A1F4C2C0B2F";
name = Regular;
paths = (
{
closed = 1;
nodes = (
"864 652 OFFCURVE",
"850 636 OFFCURVE",
"834 620 CURVE",
"834 729 LINE",
"787 729 LINE",
"787 374 LINE",
"834 374 LINE",
"834 405 LINE",
"850 390 OFFCURVE",
"864 374 OFFCURVE",
"880 374 CURVE SMOOTH",
"895 374 OFFCURVE",
"910 390 OFFCURVE",
"926 421 CURVE SMOOTH",
"926 436 OFFCURVE",
"926 466 OFFCURVE",
"926 513 CURVE SMOOTH",
"926 544 OFFCURVE",
"926 575 OFFCURVE",
"926 589 CURVE SMOOTH",
"910 636 OFFCURVE",
"895 652 OFFCURVE",
"880 652 CURVE SMOOTH"
);
},
{
closed = 1;
nodes = (
"880 436 OFFCURVE",
"864 421 OFFCURVE",
"864 421 CURVE SMOOTH",
"850 421 OFFCURVE",
"850 436 OFFCURVE",
"834 450 CURVE SMOOTH",
"834 450 OFFCURVE",
"834 466 OFFCURVE",
"834 497 CURVE SMOOTH",
"834 529 OFFCURVE",
"834 544 OFFCURVE",
"834 560 CURVE SMOOTH",
"834 575 OFFCURVE",
"850 589 OFFCURVE",
"864 589 CURVE SMOOTH",
"880 589 OFFCURVE",
"880 589 OFFCURVE",
"880 560 CURVE SMOOTH",
"880 560 OFFCURVE",
"880 544 OFFCURVE",
"880 513 CURVE SMOOTH",
"880 481 OFFCURVE",
"880 466 OFFCURVE",
"880 450 CURVE SMOOTH"
);
},
{
closed = 1;
nodes = (
"771 961 OFFCURVE",
"787 961 OFFCURVE",
"787 991 CURVE SMOOTH",
"787 991 OFFCURVE",
"787 1007 OFFCURVE",
"787 1037 CURVE SMOOTH",
"787 1053 LINE SMOOTH",
"787 1084 OFFCURVE",
"787 1100 OFFCURVE",
"787 1100 CURVE SMOOTH",
"787 1130 OFFCURVE",
"771 1130 OFFCURVE",
"771 1130 CURVE SMOOTH",
"756 1130 OFFCURVE",
"741 1130 OFFCURVE",
"741 1115 CURVE SMOOTH",
"741 1100 OFFCURVE",
"741 1084 OFFCURVE",
"741 1068 CURVE SMOOTH",
"741 1037 LINE SMOOTH",
"741 1007 OFFCURVE",
"741 991 OFFCURVE",
"741 991 CURVE SMOOTH",
"741 961 OFFCURVE",
"756 961 OFFCURVE",
"771 961 CURVE SMOOTH"
);
},
{
closed = 1;
nodes = (
"711 466 OFFCURVE",
"711 450 OFFCURVE",
"711 436 CURVE SMOOTH",
"695 436 OFFCURVE",
"695 421 OFFCURVE",
"680 421 CURVE SMOOTH",
"680 421 OFFCURVE",
"664 436 OFFCURVE",
"664 436 CURVE SMOOTH",
"664 450 OFFCURVE",
"664 450 OFFCURVE",
"664 466 CURVE SMOOTH",
"664 636 LINE",
"617 636 LINE",
"617 436 LINE SMOOTH",
"617 390 OFFCURVE",
"632 374 OFFCURVE",
"664 374 CURVE SMOOTH",
"680 374 OFFCURVE",
"695 390 OFFCURVE",
"711 405 CURVE",
"711 374 LINE",
"756 374 LINE",
"756 636 LINE",
"711 636 LINE",
"711 466 LINE SMOOTH"
);
},
{
closed = 1;
nodes = (
"1003 652 OFFCURVE",
"988 636 OFFCURVE",
"973 620 CURVE SMOOTH",
"973 605 OFFCURVE",
"958 589 OFFCURVE",
"958 575 CURVE SMOOTH",
"958 560 OFFCURVE",
"958 544 OFFCURVE",
"958 513 CURVE SMOOTH",
"958 481 OFFCURVE",
"958 466 OFFCURVE",
"958 450 CURVE SMOOTH",
"958 436 OFFCURVE",
"973 405 OFFCURVE",
"973 405 CURVE SMOOTH",
"988 390 OFFCURVE",
"1003 374 OFFCURVE",
"1019 374 CURVE SMOOTH",
"1049 374 OFFCURVE",
"1065 374 OFFCURVE",
"1080 390 CURVE SMOOTH",
"1097 405 OFFCURVE",
"1097 436 OFFCURVE",
"1097 466 CURVE SMOOTH",
"1097 466 OFFCURVE",
"1097 466 OFFCURVE",
"1097 466 CURVE SMOOTH",
"1097 466 OFFCURVE",
"1097 466 OFFCURVE",
"1097 466 CURVE",
"1049 466 LINE",
"1049 436 OFFCURVE",
"1049 421 OFFCURVE",
"1034 421 CURVE SMOOTH",
"1019 421 OFFCURVE",
"1003 421 OFFCURVE",
"1003 450 CURVE SMOOTH",
"1003 450 OFFCURVE",
"1003 466 OFFCURVE",
"1003 481 CURVE SMOOTH",
"1003 497 OFFCURVE",
"1003 497 OFFCURVE",
"1003 497 CURVE",
"1097 497 LINE",
"1097 529 LINE SMOOTH",
"1097 575 OFFCURVE",
"1097 605 OFFCURVE",
"1080 620 CURVE SMOOTH",
"1065 636 OFFCURVE",
"1049 652 OFFCURVE",
"1034 652 CURVE SMOOTH"
);
},
{
closed = 1;
nodes = (
"1003 544 LINE",
"1003 544 OFFCURVE",
"1003 544 OFFCURVE",
"1003 544 CURVE SMOOTH",
"1003 560 LINE SMOOTH",
"1003 575 OFFCURVE",
"1003 575 OFFCURVE",
"1003 589 CURVE SMOOTH",
"1019 589 OFFCURVE",
"1019 605 OFFCURVE",
"1019 605 CURVE SMOOTH",
"1034 605 OFFCURVE",
"1049 589 OFFCURVE",
"1049 589 CURVE SMOOTH",
"1049 575 OFFCURVE",
"1049 575 OFFCURVE",
"1049 560 CURVE SMOOTH",
"1049 544 LINE"
);
},
{
closed = 1;
nodes = (
"493 668 LINE",
"493 374 LINE",
"541 374 LINE",
"541 668 LINE",
"601 668 LINE",
"601 729 LINE",
"433 729 LINE",
"433 668 LINE"
);
},
{
closed = 1;
nodes = (
"170 1532 LINE SMOOTH",
"77 1532 OFFCURVE",
"0 1470 OFFCURVE",
"0 1377 CURVE SMOOTH",
"0 173 LINE SMOOTH",
"0 81 OFFCURVE",
"77 3 OFFCURVE",
"170 3 CURVE SMOOTH",
"1374 3 LINE SMOOTH",
"1467 3 OFFCURVE",
"1544 81 OFFCURVE",
"1544 173 CURVE SMOOTH",
"1544 1377 LINE SMOOTH",
"1544 1470 OFFCURVE",
"1467 1532 OFFCURVE",
"1374 1532 CURVE SMOOTH"
);
},
{
closed = 1;
nodes = (
"910 1177 LINE",
"910 1007 LINE SMOOTH",
"910 991 OFFCURVE",
"910 976 OFFCURVE",
"910 976 CURVE SMOOTH",
"926 961 OFFCURVE",
"926 961 OFFCURVE",
"942 961 CURVE SMOOTH",
"942 961 OFFCURVE",
"958 961 OFFCURVE",
"958 976 CURVE SMOOTH",
"958 991 OFFCURVE",
"958 991 OFFCURVE",
"958 1007 CURVE SMOOTH",
"958 1177 LINE",
"1003 1177 LINE",
"1003 914 LINE",
"958 914 LINE",
"958 946 LINE",
"942 914 OFFCURVE",
"926 914 OFFCURVE",
"910 914 CURVE SMOOTH",
"880 914 OFFCURVE",
"864 929 OFFCURVE",
"864 976 CURVE SMOOTH",
"864 1177 LINE"
);
},
{
closed = 1;
nodes = (
"711 1177 OFFCURVE",
"741 1177 OFFCURVE",
"771 1177 CURVE SMOOTH",
"803 1177 OFFCURVE",
"819 1177 OFFCURVE",
"834 1146 CURVE SMOOTH",
"834 1130 OFFCURVE",
"834 1084 OFFCURVE",
"834 1053 CURVE SMOOTH",
"834 1007 OFFCURVE",
"834 976 OFFCURVE",
"834 946 CURVE SMOOTH",
"819 929 OFFCURVE",
"803 914 OFFCURVE",
"771 914 CURVE SMOOTH",
"741 914 OFFCURVE",
"711 929 OFFCURVE",
"711 946 CURVE SMOOTH",
"695 976 OFFCURVE",
"695 1007 OFFCURVE",
"695 1053 CURVE SMOOTH",
"695 1084 OFFCURVE",
"695 1130 OFFCURVE",
"711 1146 CURVE SMOOTH"
);
},
{
closed = 1;
nodes = (
"587 1130 LINE",
"632 1269 LINE",
"680 1269 LINE",
"617 1068 LINE",
"617 914 LINE",
"556 914 LINE",
"556 1068 LINE",
"493 1269 LINE",
"541 1269 LINE"
);
},
{
closed = 1;
nodes = (
"1173 327 OFFCURVE",
"1112 266 OFFCURVE",
"1034 266 CURVE SMOOTH",
"493 266 LINE SMOOTH",
"417 266 OFFCURVE",
"354 327 OFFCURVE",
"354 405 CURVE SMOOTH",
"354 668 LINE SMOOTH",
"354 744 OFFCURVE",
"417 807 OFFCURVE",
"493 807 CURVE SMOOTH",
"1034 807 LINE SMOOTH",
"1112 807 OFFCURVE",
"1173 744 OFFCURVE",
"1173 668 CURVE SMOOTH",
"1173 405 LINE SMOOTH"
);
}
);
width = 1536;
}
);
unicode = F002;
},
{
glyphname = uniF003;
lastChange = "2013-04-27 22:17:02 +0000";
layers = (
{
layerId = "42DB7337-2365-47C1-9F22-9A1F4C2C0B2F";
name = Regular;
paths = (
{
closed = 1;
nodes = (
"402 828 LINE SMOOTH",
"294 828 OFFCURVE",
"208 742 OFFCURVE",
"208 635 CURVE SMOOTH",
"208 250 LINE SMOOTH",
"208 144 OFFCURVE",
"294 37 OFFCURVE",
"402 37 CURVE SMOOTH",
"1193 37 LINE SMOOTH",
"1321 37 OFFCURVE",
"1407 144 OFFCURVE",
"1407 250 CURVE SMOOTH",
"1407 635 LINE SMOOTH",
"1407 742 OFFCURVE",
"1321 828 OFFCURVE",
"1193 828 CURVE SMOOTH"
);
},
{
closed = 1;
nodes = (
"487 613 LINE",
"487 206 LINE",
"402 206 LINE",
"402 613 LINE",
"336 613 LINE",
"336 700 LINE",
"573 700 LINE",
"573 613 LINE"
);
},
{
closed = 1;
nodes = (
"723 206 LINE",
"723 250 LINE",
"701 206 OFFCURVE",
"679 186 OFFCURVE",
"657 186 CURVE SMOOTH",
"615 186 OFFCURVE",
"595 228 OFFCURVE",
"595 292 CURVE SMOOTH",
"595 571 LINE",
"657 571 LINE",
"657 334 LINE SMOOTH",
"657 314 OFFCURVE",
"657 292 OFFCURVE",
"657 292 CURVE SMOOTH",
"679 272 OFFCURVE",
"679 272 OFFCURVE",
"701 272 CURVE SMOOTH",
"701 272 OFFCURVE",
"723 272 OFFCURVE",
"723 292 CURVE SMOOTH",
"723 292 OFFCURVE",
"723 314 OFFCURVE",
"723 334 CURVE SMOOTH",
"723 571 LINE",
"785 571 LINE",
"785 206 LINE"
);
},
{
closed = 1;
nodes = (
"1022 206 OFFCURVE",
"1000 186 OFFCURVE",
"958 186 CURVE SMOOTH",
"936 186 OFFCURVE",
"916 206 OFFCURVE",
"916 250 CURVE",
"916 206 LINE",
"850 206 LINE",
"850 700 LINE",
"916 700 LINE",
"916 549 LINE",
"916 571 OFFCURVE",
"936 593 OFFCURVE",
"978 593 CURVE SMOOTH",
"1000 593 OFFCURVE",
"1022 571 OFFCURVE",
"1044 507 CURVE SMOOTH",
"1044 485 OFFCURVE",
"1044 442 OFFCURVE",
"1044 379 CURVE SMOOTH",
"1044 334 OFFCURVE",
"1044 292 OFFCURVE",
"1044 272 CURVE SMOOTH"
);
},
{
closed = 1;
nodes = (
"1151 379 LINE",
"1151 379 OFFCURVE",
"1151 358 OFFCURVE",
"1151 358 CURVE SMOOTH",
"1151 334 OFFCURVE",
"1151 314 OFFCURVE",
"1151 292 CURVE SMOOTH",
"1171 272 OFFCURVE",
"1171 250 OFFCURVE",
"1193 250 CURVE SMOOTH",
"1213 250 OFFCURVE",
"1213 292 OFFCURVE",
"1213 334 CURVE",
"1279 334 LINE",
"1279 334 OFFCURVE",
"1279 334 OFFCURVE",
"1279 314 CURVE SMOOTH",
"1279 314 OFFCURVE",
"1279 314 OFFCURVE",
"1279 314 CURVE SMOOTH",
"1279 272 OFFCURVE",
"1279 250 OFFCURVE",
"1257 228 CURVE SMOOTH",
"1237 206 OFFCURVE",
"1213 186 OFFCURVE",
"1193 186 CURVE SMOOTH",
"1151 186 OFFCURVE",
"1129 206 OFFCURVE",
"1106 228 CURVE SMOOTH",
"1106 250 OFFCURVE",
"1086 272 OFFCURVE",
"1086 314 CURVE SMOOTH",
"1086 334 OFFCURVE",
"1086 358 OFFCURVE",
"1086 400 CURVE SMOOTH",
"1086 442 OFFCURVE",
"1086 465 OFFCURVE",
"1086 485 CURVE SMOOTH",
"1086 507 OFFCURVE",
"1106 527 OFFCURVE",
"1106 549 CURVE SMOOTH",
"1129 571 OFFCURVE",
"1151 593 OFFCURVE",
"1193 593 CURVE SMOOTH",
"1213 593 OFFCURVE",
"1257 571 OFFCURVE",
"1257 549 CURVE SMOOTH",
"1279 527 OFFCURVE",
"1279 485 OFFCURVE",
"1279 400 CURVE SMOOTH",
"1279 379 LINE"
);
},
{
closed = 1;
nodes = (
"1171 527 OFFCURVE",
"1171 507 OFFCURVE",
"1171 507 CURVE SMOOTH",
"1151 485 OFFCURVE",
"1151 485 OFFCURVE",
"1151 465 CURVE SMOOTH",
"1151 442 LINE SMOOTH",
"1151 442 OFFCURVE",
"1151 442 OFFCURVE",
"1151 442 CURVE",
"1213 442 LINE",
"1213 465 LINE SMOOTH",
"1213 485 OFFCURVE",
"1213 485 OFFCURVE",
"1213 507 CURVE SMOOTH",
"1213 507 OFFCURVE",
"1193 527 OFFCURVE",
"1193 527 CURVE SMOOTH"
);
},
{
closed = 1;
nodes = (
"936 507 OFFCURVE",
"916 485 OFFCURVE",
"916 465 CURVE SMOOTH",
"916 442 OFFCURVE",
"916 421 OFFCURVE",
"916 379 CURVE SMOOTH",
"916 334 OFFCURVE",
"916 314 OFFCURVE",
"916 314 CURVE SMOOTH",
"916 272 OFFCURVE",
"936 272 OFFCURVE",
"936 272 CURVE SMOOTH",
"958 272 OFFCURVE",
"978 272 OFFCURVE",
"978 314 CURVE SMOOTH",
"978 314 OFFCURVE",
"978 358 OFFCURVE",
"978 400 CURVE SMOOTH",
"978 442 OFFCURVE",
"978 465 OFFCURVE",
"978 465 CURVE SMOOTH",
"978 507 OFFCURVE",
"958 507 OFFCURVE",
"936 507 CURVE SMOOTH"
);
},
{
closed = 1;
nodes = (
"509 1191 LINE",
"402 1490 LINE",
"487 1490 LINE",
"551 1297 LINE",
"595 1490 LINE",
"679 1490 LINE",
"573 1191 LINE",
"573 976 LINE",
"509 976 LINE"
);
},
{
closed = 1;
nodes = (
"701 1235 OFFCURVE",
"701 1277 OFFCURVE",
"723 1319 CURVE SMOOTH",
"743 1342 OFFCURVE",
"765 1363 OFFCURVE",
"808 1363 CURVE SMOOTH",
"850 1363 OFFCURVE",
"872 1342 OFFCURVE",
"892 1319 CURVE SMOOTH",
"916 1277 OFFCURVE",
"916 1235 OFFCURVE",
"916 1169 CURVE SMOOTH",
"916 1107 OFFCURVE",
"916 1063 OFFCURVE",
"892 1042 CURVE SMOOTH",
"872 1000 OFFCURVE",
"850 976 OFFCURVE",
"808 976 CURVE SMOOTH",
"765 976 OFFCURVE",
"743 1000 OFFCURVE",
"723 1042 CURVE SMOOTH",
"701 1063 OFFCURVE",
"701 1107 OFFCURVE",
"701 1169 CURVE SMOOTH"
);
},
{
closed = 1;
nodes = (
"765 1127 OFFCURVE",
"765 1084 OFFCURVE",
"765 1084 CURVE SMOOTH",
"785 1063 OFFCURVE",
"785 1042 OFFCURVE",
"808 1042 CURVE SMOOTH",
"830 1042 OFFCURVE",
"830 1063 OFFCURVE",
"830 1084 CURVE SMOOTH",
"850 1084 OFFCURVE",
"850 1107 OFFCURVE",
"850 1149 CURVE SMOOTH",
"850 1191 LINE SMOOTH",
"850 1235 OFFCURVE",
"850 1255 OFFCURVE",
"830 1255 CURVE SMOOTH",
"830 1297 OFFCURVE",
"830 1297 OFFCURVE",
"808 1297 CURVE SMOOTH",
"785 1297 OFFCURVE",
"785 1297 OFFCURVE",
"785 1255 CURVE SMOOTH",
"765 1255 OFFCURVE",
"765 1235 OFFCURVE",
"765 1191 CURVE SMOOTH",
"765 1169 LINE SMOOTH"
);
},
{
closed = 1;
nodes = (
"1151 976 LINE",
"1086 976 LINE",
"1086 1021 LINE",
"1064 1000 OFFCURVE",
"1044 976 OFFCURVE",
"1022 976 CURVE SMOOTH",
"978 976 OFFCURVE",
"958 1000 OFFCURVE",
"958 1063 CURVE SMOOTH",
"958 1363 LINE",
"1022 1363 LINE",
"1022 1107 LINE SMOOTH",
"1022 1084 OFFCURVE",
"1022 1084 OFFCURVE",
"1022 1063 CURVE SMOOTH",
"1022 1063 OFFCURVE",
"1044 1042 OFFCURVE",
"1044 1042 CURVE SMOOTH",
"1064 1042 OFFCURVE",
"1064 1063 OFFCURVE",
"1086 1063 CURVE SMOOTH",
"1086 1084 OFFCURVE",
"1086 1107 OFFCURVE",
"1086 1127 CURVE SMOOTH",
"1086 1363 LINE",
"1151 1363 LINE"
);
}
);
width = 1597;
}
);
unicode = F003;
},
{
glyphname = uniF004;
lastChange = "2013-04-28 00:05:51 +0000";
layers = (
{
layerId = "42DB7337-2365-47C1-9F22-9A1F4C2C0B2F";
name = Regular;
paths = (
{
closed = 1;
nodes = (
"172 1530 LINE SMOOTH",
"78 1530 OFFCURVE",
"3 1455 OFFCURVE",
"3 1376 CURVE SMOOTH",
"3 176 LINE SMOOTH",
"3 83 OFFCURVE",
"78 6 OFFCURVE",
"172 6 CURVE SMOOTH",
"1373 6 LINE SMOOTH",
"1467 6 OFFCURVE",
"1527 83 OFFCURVE",
"1527 176 CURVE SMOOTH",
"1527 1376 LINE SMOOTH",
"1527 1455 OFFCURVE",
"1467 1530 OFFCURVE",
"1373 1530 CURVE SMOOTH"
);
},
{
closed = 1;
nodes = (
"988 346 OFFCURVE",
"957 331 OFFCURVE",
"927 331 CURVE SMOOTH",
"896 314 OFFCURVE",
"850 314 OFFCURVE",
"819 314 CURVE SMOOTH",
"774 314 OFFCURVE",
"742 314 OFFCURVE",
"711 331 CURVE SMOOTH",
"680 346 OFFCURVE",
"649 359 OFFCURVE",
"635 374 CURVE SMOOTH",
"605 391 OFFCURVE",
"587 406 OFFCURVE",
"587 438 CURVE SMOOTH",
"572 453 OFFCURVE",
"572 485 OFFCURVE",
"572 529 CURVE SMOOTH",
"572 838 LINE",
"481 838 LINE",
"481 961 LINE",
"510 976 OFFCURVE",
"542 992 OFFCURVE",
"572 1007 CURVE SMOOTH",
"587 1038 OFFCURVE",
"605 1054 OFFCURVE",
"620 1082 CURVE SMOOTH",
"635 1115 OFFCURVE",
"649 1162 OFFCURVE",
"649 1208 CURVE",
"786 1208 LINE",
"786 976 LINE",
"988 976 LINE",
"988 838 LINE",
"786 838 LINE",
"786 608 LINE SMOOTH",
"786 560 OFFCURVE",
"786 529 OFFCURVE",
"786 513 CURVE SMOOTH",
"804 500 OFFCURVE",
"804 485 OFFCURVE",
"819 485 CURVE SMOOTH",
"834 469 OFFCURVE",
"865 453 OFFCURVE",
"896 453 CURVE SMOOTH",
"927 453 OFFCURVE",
"973 469 OFFCURVE",
"1020 500 CURVE",
"1020 359 LINE"
);
}
);
width = 1536;
}
);
unicode = F004;
},
{
glyphname = uniF005;
lastChange = "2013-04-27 22:19:47 +0000";
layers = (
{
layerId = "42DB7337-2365-47C1-9F22-9A1F4C2C0B2F";
name = Regular;
paths = (
{
closed = 1;
nodes = (
"808 1121 LINE",
"1147 1121 LINE",
"1147 899 LINE",
"808 899 LINE",
"808 534 LINE SMOOTH",
"808 452 OFFCURVE",
"817 403 OFFCURVE",
"826 378 CURVE SMOOTH",
"832 354 OFFCURVE",
"850 336 OFFCURVE",
"874 321 CURVE SMOOTH",
"900 303 OFFCURVE",
"941 294 OFFCURVE",
"982 294 CURVE SMOOTH",
"1048 294 OFFCURVE",
"1123 312 OFFCURVE",
"1188 362 CURVE",
"1188 139 LINE",
"1131 114 OFFCURVE",
"1081 90 OFFCURVE",
"1031 81 CURVE SMOOTH",
"982 66 OFFCURVE",
"924 66 OFFCURVE",
"868 66 CURVE SMOOTH",
"808 66 OFFCURVE",
"751 72 OFFCURVE",
"701 90 CURVE SMOOTH",
"652 105 OFFCURVE",
"603 130 OFFCURVE",
"569 155 CURVE SMOOTH",
"536 187 OFFCURVE",
"512 220 OFFCURVE",
"494 255 CURVE SMOOTH",
"488 288 OFFCURVE",
"479 336 OFFCURVE",
"479 403 CURVE SMOOTH",
"479 899 LINE",
"322 899 LINE",
"322 1095 LINE",
"379 1112 OFFCURVE",
"420 1136 OFFCURVE",
"461 1171 CURVE SMOOTH",
"503 1211 OFFCURVE",
"536 1244 OFFCURVE",
"562 1294 CURVE SMOOTH",
"586 1343 OFFCURVE",
"603 1400 OFFCURVE",
"610 1474 CURVE",
"808 1474 LINE"
);
}
);
width = 1597;
}
);
unicode = F005;
},
{
glyphname = uniF006;
lastChange = "2013-04-28 00:06:20 +0000";
layers = (
{
layerId = "42DB7337-2365-47C1-9F22-9A1F4C2C0B2F";
name = Regular;
paths = (
{
closed = 1;
nodes = (
"606 782 LINE",
"652 782 LINE",
"652 873 LINE",
"606 873 LINE",
"482 1057 LINE",
"344 1057 LINE",
"498 827 LINE",
"329 596 LINE",
"482 596 LINE"
);
},
{
closed = 1;
nodes = (
"898 782 LINE",
"1022 596 LINE",
"1175 596 LINE",
"1006 827 LINE",
"1160 1057 LINE",
"1006 1057 LINE",
"898 873 LINE",
"805 873 LINE",
"805 1057 LINE",
"682 1057 LINE",
"682 596 LINE",
"805 596 LINE",
"805 782 LINE"
);
},
{
closed = 1;
nodes = (
"159 1535 LINE SMOOTH",
"67 1535 OFFCURVE",
"5 1459 OFFCURVE",
"5 1366 CURVE SMOOTH",
"5 165 LINE SMOOTH",
"5 72 OFFCURVE",
"67 -4 OFFCURVE",
"159 -4 CURVE SMOOTH",
"1361 -4 LINE SMOOTH",
"1452 -4 OFFCURVE",
"1529 72 OFFCURVE",
"1529 165 CURVE SMOOTH",
"1529 1366 LINE SMOOTH",
"1529 1459 OFFCURVE",
"1452 1535 OFFCURVE",
"1361 1535 CURVE SMOOTH"
);
},
{
closed = 1;
nodes = (
"1268 334 LINE",
"929 504 LINE",
"221 504 LINE",
"221 1135 LINE",
"1268 1135 LINE",
"1268 504 LINE"
);
}
);
width = 1536;
}
);
unicode = F006;
},
{
glyphname = uniF007;
lastChange = "2013-04-27 22:17:31 +0000";
layers = (
{
layerId = "42DB7337-2365-47C1-9F22-9A1F4C2C0B2F";
name = Regular;
paths = (
{
closed = 1;
nodes = (
"66 446 LINE",
"1053 446 LINE",
"1528 205 LINE",
"1528 446 LINE",
"1528 1344 LINE",
"66 1344 LINE"
);
},
{
closed = 1;
nodes = (
"595 824 LINE",
"416 581 LINE",
"210 581 LINE",
"451 905 LINE",
"227 1218 LINE",
"425 1218 LINE",
"595 977 LINE",
"667 977 LINE",
"667 824 LINE"
);
},
{
closed = 1;
nodes = (
"1009 824 LINE",
"884 824 LINE",
"884 581 LINE",
"712 581 LINE",
"712 1218 LINE",
"884 1218 LINE",
"884 977 LINE",
"1009 977 LINE",
"1169 1218 LINE",
"1376 1218 LINE",
"1151 905 LINE",
"1394 581 LINE",
"1178 581 LINE"
);
}
);
width = 1597;
}
);
unicode = F007;
},
{
glyphname = uniF008;
lastChange = "2013-04-28 00:03:58 +0000";
layers = (
{
layerId = "42DB7337-2365-47C1-9F22-9A1F4C2C0B2F";
name = Regular;
paths = (
{
closed = 1;
nodes = (
"164 1530 LINE SMOOTH",
"75 1530 OFFCURVE",
"1 1455 OFFCURVE",
"1 1361 CURVE SMOOTH",
"1 159 LINE SMOOTH",
"1 70 OFFCURVE",
"75 -4 OFFCURVE",
"164 -4 CURVE SMOOTH",
"1367 -4 LINE SMOOTH",
"1460 -4 OFFCURVE",
"1535 70 OFFCURVE",
"1535 159 CURVE SMOOTH",
"1535 1361 LINE SMOOTH",
"1535 1455 OFFCURVE",
"1460 1530 OFFCURVE",
"1367 1530 CURVE SMOOTH"
);
},
{
closed = 1;
nodes = (
"482 1142 OFFCURVE",
"503 1152 OFFCURVE",
"503 1152 CURVE",
"696 1222 LINE",
"701 1222 OFFCURVE",
"710 1232 OFFCURVE",
"740 1217 CURVE SMOOTH",
"756 1202 OFFCURVE",
"761 1163 OFFCURVE",
"761 1163 CURVE",
"766 835 LINE",
"766 835 OFFCURVE",
"761 795 OFFCURVE",
"731 785 CURVE SMOOTH",
"706 780 OFFCURVE",
"686 800 OFFCURVE",
"686 800 CURVE",
"487 1073 LINE",
"487 1073 OFFCURVE",
"458 1108 OFFCURVE",
"473 1128 CURVE SMOOTH"
);
},
{
closed = 1;
nodes = (
"363 577 OFFCURVE",
"363 606 OFFCURVE",
"363 606 CURVE",
"378 770 LINE SMOOTH",
"378 785 OFFCURVE",
"389 795 OFFCURVE",
"403 800 CURVE SMOOTH",
"418 810 OFFCURVE",
"448 800 OFFCURVE",
"448 800 CURVE",
"651 696 LINE",
"651 696 OFFCURVE",
"686 681 OFFCURVE",
"686 651 CURVE SMOOTH",
"681 621 OFFCURVE",
"666 621 OFFCURVE",
"656 612 CURVE",
"418 557 LINE",
"418 557 OFFCURVE",
"384 547 OFFCURVE",
"368 566 CURVE SMOOTH"
);
},
{
closed = 1;
nodes = (
"731 244 OFFCURVE",
"710 249 OFFCURVE",
"710 249 CURVE",
"547 303 LINE",
"537 308 OFFCURVE",
"527 313 OFFCURVE",
"522 329 CURVE SMOOTH",
"517 348 OFFCURVE",
"537 373 OFFCURVE",
"537 373 CURVE",
"701 552 LINE",
"701 552 OFFCURVE",
"726 577 OFFCURVE",
"745 561 CURVE SMOOTH",
"766 552 OFFCURVE",
"766 531 OFFCURVE",
"766 531 CURVE",
"761 289 LINE",
"761 289 OFFCURVE",
"766 254 OFFCURVE",
"745 249 CURVE SMOOTH"
);
},
{
closed = 1;
nodes = (
"974 954 LINE",
"974 954 OFFCURVE",
"989 979 OFFCURVE",
"1009 979 CURVE SMOOTH",
"1028 974 OFFCURVE",
"1039 959 OFFCURVE",
"1039 959 CURVE",
"1147 830 LINE",
"1147 830 OFFCURVE",
"1158 805 OFFCURVE",
"1153 791 CURVE SMOOTH",
"1147 770 OFFCURVE",
"1118 761 OFFCURVE",
"1118 761 CURVE",
"884 691 LINE",
"884 691 OFFCURVE",
"854 686 OFFCURVE",
"840 705 CURVE SMOOTH",
"830 726 OFFCURVE",
"840 745 OFFCURVE",
"840 745 CURVE"
);
},
{
closed = 1;
nodes = (
"1049 333 LINE",
"1049 333 OFFCURVE",
"1028 319 OFFCURVE",
"1014 319 CURVE SMOOTH",
"994 319 OFFCURVE",
"974 348 OFFCURVE",
"974 348 CURVE",
"850 557 LINE",
"850 557 OFFCURVE",
"835 587 OFFCURVE",
"854 601 CURVE SMOOTH",
"870 617 OFFCURVE",
"889 612 OFFCURVE",
"889 612 CURVE",
"1123 537 LINE",
"1123 537 OFFCURVE",
"1158 531 OFFCURVE",
"1158 507 CURVE SMOOTH",
"1158 492 OFFCURVE",
"1147 477 OFFCURVE",
"1147 477 CURVE"
);
}
);
width = 1536;
}
);
unicode = F008;
},
{
glyphname = uniF009;
lastChange = "2013-04-27 23:04:03 +0000";
layers = (
{
layerId = "42DB7337-2365-47C1-9F22-9A1F4C2C0B2F";
name = Regular;
paths = (
{
closed = 1;
nodes = (
"927 546 OFFCURVE",
"949 508 OFFCURVE",
"949 508 CURVE",
"1137 229 LINE",
"1137 229 OFFCURVE",
"1179 186 OFFCURVE",
"1202 186 CURVE SMOOTH",
"1223 186 OFFCURVE",
"1244 207 OFFCURVE",
"1244 207 CURVE",
"1395 412 LINE",
"1395 412 OFFCURVE",
"1416 433 OFFCURVE",
"1416 450 CURVE SMOOTH",
"1416 487 OFFCURVE",
"1374 487 OFFCURVE",
"1374 487 CURVE",
"1013 589 LINE",
"1013 589 OFFCURVE",
"992 610 OFFCURVE",
"970 589 CURVE SMOOTH"
);
},
{
closed = 1;
nodes = (
"970 713 OFFCURVE",
"1013 713 OFFCURVE",
"1013 713 CURVE",
"1352 809 LINE",
"1352 809 OFFCURVE",
"1416 831 OFFCURVE",
"1416 847 CURVE SMOOTH",
"1416 869 OFFCURVE",
"1395 911 OFFCURVE",
"1395 911 CURVE",
"1244 1089 LINE",
"1244 1089 OFFCURVE",
"1223 1110 OFFCURVE",
"1202 1110 CURVE SMOOTH",
"1158 1110 OFFCURVE",
"1137 1068 OFFCURVE",
"1137 1068 CURVE",
"949 788 LINE",
"949 788 OFFCURVE",
"927 745 OFFCURVE",
"949 734 CURVE SMOOTH"
);
},
{
closed = 1;
nodes = (
"814 847 OFFCURVE",
"814 911 OFFCURVE",
"814 911 CURVE",
"814 1368 LINE",
"814 1368 OFFCURVE",
"814 1428 OFFCURVE",
"776 1449 CURVE SMOOTH",
"733 1471 OFFCURVE",
"733 1471 OFFCURVE",
"712 1471 CURVE",
"438 1368 LINE",
"438 1368 OFFCURVE",
"395 1347 OFFCURVE",
"395 1326 CURVE SMOOTH",
"373 1293 OFFCURVE",
"417 1251 OFFCURVE",
"417 1251 CURVE",
"712 869 LINE",
"712 869 OFFCURVE",
"733 831 OFFCURVE",
"776 847 CURVE SMOOTH"
);
},
{
closed = 1;
nodes = (
"712 691 OFFCURVE",
"648 713 OFFCURVE",
"648 713 CURVE",
"352 869 LINE",
"352 869 OFFCURVE",
"309 869 OFFCURVE",
"288 869 CURVE SMOOTH",
"266 847 OFFCURVE",
"245 847 OFFCURVE",
"245 831 CURVE SMOOTH",
"223 589 LINE",
"223 589 OFFCURVE",
"223 546 OFFCURVE",
"223 530 CURVE SMOOTH",
"245 508 OFFCURVE",
"309 530 OFFCURVE",
"309 530 CURVE",
"669 589 LINE",
"669 610 OFFCURVE",
"712 610 OFFCURVE",
"712 649 CURVE SMOOTH"
);
},
{
closed = 1;
nodes = (
"755 546 OFFCURVE",
"733 508 OFFCURVE",
"733 508 CURVE",
"481 267 LINE",
"481 267 OFFCURVE",
"459 229 OFFCURVE",
"459 186 CURVE SMOOTH",
"459 165 OFFCURVE",
"481 165 OFFCURVE",
"502 149 CURVE",
"733 89 LINE",
"733 89 OFFCURVE",
"776 68 OFFCURVE",
"799 89 CURVE SMOOTH",
"814 89 OFFCURVE",
"814 149 OFFCURVE",
"814 149 CURVE",
"814 487 LINE",
"814 487 OFFCURVE",
"814 508 OFFCURVE",
"799 530 CURVE SMOOTH"
);
}
);
width = 1597;
}
);
unicode = F009;
},
{
glyphname = uniF012;
lastChange = "2013-04-28 00:07:18 +0000";
layers = (
{
layerId = "42DB7337-2365-47C1-9F22-9A1F4C2C0B2F";
name = Regular;
paths = (
{
closed = 1;
nodes = (
"177 1530 LINE SMOOTH",
"87 1530 OFFCURVE",
"9 1452 OFFCURVE",
"9 1361 CURVE SMOOTH",
"9 169 LINE SMOOTH",
"9 76 OFFCURVE",
"87 1 OFFCURVE",
"177 1 CURVE SMOOTH",
"1369 1 LINE SMOOTH",
"1463 1 OFFCURVE",
"1521 76 OFFCURVE",
"1521 169 CURVE SMOOTH",
"1521 1361 LINE SMOOTH",
"1521 1452 OFFCURVE",
"1463 1530 OFFCURVE",
"1369 1530 CURVE SMOOTH"
);
},
{
closed = 1;
nodes = (
"498 260 OFFCURVE",
"284 474 OFFCURVE",
"284 733 CURVE SMOOTH",
"284 1009 OFFCURVE",
"498 1222 OFFCURVE",
"773 1222 CURVE SMOOTH",
"1033 1222 OFFCURVE",
"1247 1009 OFFCURVE",
"1247 733 CURVE SMOOTH",
"1247 474 OFFCURVE",
"1033 260 OFFCURVE",
"773 260 CURVE SMOOTH"
);
},
{
closed = 1;
nodes = (
"896 794 OFFCURVE",
"683 827 OFFCURVE",
"514 781 CURVE SMOOTH",
"482 765 OFFCURVE",
"482 749 OFFCURVE",
"482 733 CURVE SMOOTH",
"482 704 OFFCURVE",
"514 704 OFFCURVE",
"530 704 CURVE SMOOTH",
"683 749 OFFCURVE",
"865 720 OFFCURVE",
"1003 642 CURVE SMOOTH",
"1019 642 OFFCURVE",
"1033 642 OFFCURVE",
"1049 659 CURVE SMOOTH",
"1064 672 OFFCURVE",
"1049 704 OFFCURVE",
"1033 704 CURVE SMOOTH"
);
},
{
closed = 1;
nodes = (
"926 979 OFFCURVE",
"650 979 OFFCURVE",
"482 933 CURVE SMOOTH",
"453 933 OFFCURVE",
"453 902 OFFCURVE",
"453 872 CURVE SMOOTH",
"468 856 OFFCURVE",
"482 841 OFFCURVE",
"514 856 CURVE SMOOTH",
"650 888 OFFCURVE",
"896 888 OFFCURVE",
"1049 794 CURVE SMOOTH",
"1078 781 OFFCURVE",
"1094 794 OFFCURVE",
"1111 811 CURVE SMOOTH",
"1126 827 OFFCURVE",
"1126 856 OFFCURVE",
"1094 872 CURVE SMOOTH"
);
},
{
closed = 1;
nodes = (
"851 642 OFFCURVE",
"696 672 OFFCURVE",
"530 626 CURVE SMOOTH",
"514 626 OFFCURVE",
"498 613 OFFCURVE",
"498 597 CURVE SMOOTH",
"514 581 OFFCURVE",
"530 565 OFFCURVE",
"544 565 CURVE SMOOTH",
"696 613 OFFCURVE",
"835 597 OFFCURVE",
"958 520 CURVE SMOOTH",
"958 520 OFFCURVE",
"988 520 OFFCURVE",
"988 536 CURVE SMOOTH",
"1003 552 OFFCURVE",
"988 565 OFFCURVE",
"988 565 CURVE SMOOTH"
);
}
);
width = 1536;
}
);
unicode = F012;
},
{
glyphname = uniF013;
lastChange = "2013-04-27 22:45:20 +0000";
layers = (
{
layerId = "42DB7337-2365-47C1-9F22-9A1F4C2C0B2F";
name = Regular;
paths = (
{
closed = 1;
nodes = (
"1520 1159 OFFCURVE",
"1186 1494 OFFCURVE",
"792 1494 CURVE SMOOTH",
"396 1494 OFFCURVE",
"62 1159 OFFCURVE",
"62 764 CURVE SMOOTH",
"62 370 OFFCURVE",
"396 34 OFFCURVE",
"792 34 CURVE SMOOTH",
"1186 34 OFFCURVE",
"1520 370 OFFCURVE",
"1520 764 CURVE SMOOTH"
);
},
{
closed = 1;
nodes = (
"396 700 OFFCURVE",
"375 721 OFFCURVE",
"352 743 CURVE SMOOTH",
"352 785 OFFCURVE",
"375 804 OFFCURVE",
"396 825 CURVE SMOOTH",
"644 889 OFFCURVE",
"978 869 OFFCURVE",
"1186 721 CURVE SMOOTH",
"1230 700 OFFCURVE",
"1230 681 OFFCURVE",
"1207 639 CURVE SMOOTH",
"1207 617 OFFCURVE",
"1164 617 OFFCURVE",
"1146 639 CURVE SMOOTH",
"938 743 OFFCURVE",
"644 785 OFFCURVE",
"439 721 CURVE SMOOTH"
);
},
{
closed = 1;
nodes = (
"1125 431 OFFCURVE",
"1082 431 OFFCURVE",
"1061 431 CURVE SMOOTH",
"894 535 OFFCURVE",
"688 556 OFFCURVE",
"439 512 CURVE SMOOTH",
"418 492 OFFCURVE",
"396 512 OFFCURVE",
"396 535 CURVE SMOOTH",
"375 556 OFFCURVE",
"396 596 OFFCURVE",
"418 596 CURVE SMOOTH",
"688 660 OFFCURVE",
"917 639 OFFCURVE",
"1103 512 CURVE SMOOTH",
"1125 492 OFFCURVE",
"1146 474 OFFCURVE",
"1125 452 CURVE SMOOTH"
);
},
{
closed = 1;
nodes = (
"604 1138 OFFCURVE",
"1021 1117 OFFCURVE",
"1291 973 CURVE SMOOTH",
"1312 950 OFFCURVE",
"1334 909 OFFCURVE",
"1312 869 CURVE SMOOTH",
"1291 848 OFFCURVE",
"1251 825 OFFCURVE",
"1230 848 CURVE SMOOTH",
"999 994 OFFCURVE",
"604 994 OFFCURVE",
"396 930 CURVE SMOOTH",
"352 930 OFFCURVE",
"314 950 OFFCURVE",
"314 973 CURVE SMOOTH",
"291 1013 OFFCURVE",
"314 1055 OFFCURVE",
"352 1055 CURVE SMOOTH"
);
}
);
width = 1597;
}
);
unicode = F013;
},
{
glyphname = uniF014;
lastChange = "2013-04-27 23:22:41 +0000";
layers = (
{
layerId = "42DB7337-2365-47C1-9F22-9A1F4C2C0B2F";
name = Regular;
paths = (
{
closed = 1;
nodes = (
"525 437 OFFCURVE",
"539 437 OFFCURVE",
"539 437 CURVE SMOOTH",
"555 421 OFFCURVE",
"586 408 OFFCURVE",
"616 391 CURVE SMOOTH",
"632 391 OFFCURVE",
"662 376 OFFCURVE",
"679 376 CURVE SMOOTH",
"740 360 OFFCURVE",
"801 360 OFFCURVE",
"847 376 CURVE SMOOTH",
"879 376 OFFCURVE",
"893 391 OFFCURVE",
"925 391 CURVE",
"908 437 OFFCURVE",
"893 560 OFFCURVE",
"831 700 CURVE",
"632 622 OFFCURVE",
"539 484 OFFCURVE",
"525 454 CURVE"
);
},
{
closed = 1;
nodes = (
"571 1130 OFFCURVE",
"555 1115 OFFCURVE",
"539 1115 CURVE SMOOTH",
"525 1100 OFFCURVE",
"494 1083 OFFCURVE",
"477 1067 CURVE SMOOTH",
"464 1037 OFFCURVE",
"447 1022 OFFCURVE",
"431 1006 CURVE SMOOTH",
"416 976 OFFCURVE",
"401 960 OFFCURVE",
"386 930 CURVE SMOOTH",
"386 915 OFFCURVE",
"370 882 OFFCURVE",
"370 869 CURVE",
"431 869 OFFCURVE",
"571 869 OFFCURVE",
"723 915 CURVE",
"679 1022 OFFCURVE",
"616 1100 OFFCURVE",
"586 1145 CURVE"
);
},
{
closed = 1;
nodes = (
"801 775 OFFCURVE",
"801 775 OFFCURVE",
"801 775 CURVE",
"786 791 OFFCURVE",
"786 822 OFFCURVE",
"770 837 CURVE",
"586 775 OFFCURVE",
"416 775 OFFCURVE",
"354 775 CURVE",
"354 775 OFFCURVE",
"354 775 OFFCURVE",
"354 775 CURVE SMOOTH",
"354 745 OFFCURVE",
"370 713 OFFCURVE",
"370 684 CURVE SMOOTH",
"370 667 OFFCURVE",
"386 637 OFFCURVE",
"386 606 CURVE SMOOTH",
"401 590 OFFCURVE",
"416 560 OFFCURVE",
"431 545 CURVE SMOOTH",
"431 529 OFFCURVE",
"447 515 OFFCURVE",
"447 515 CURVE",
"494 560 OFFCURVE",
"601 713 OFFCURVE",
"786 775 CURVE SMOOTH"
);
},
{
closed = 1;
nodes = (
"1016 1100 OFFCURVE",
"1001 1100 OFFCURVE",
"1001 1115 CURVE SMOOTH",
"970 1130 OFFCURVE",
"955 1145 OFFCURVE",
"925 1145 CURVE SMOOTH",
"893 1161 OFFCURVE",
"879 1161 OFFCURVE",
"847 1176 CURVE SMOOTH",
"801 1176 OFFCURVE",
"740 1176 OFFCURVE",
"679 1176 CURVE SMOOTH",
"679 1176 OFFCURVE",
"679 1176 OFFCURVE",
"679 1176 CURVE",
"709 1130 OFFCURVE",
"770 1053 OFFCURVE",
"831 945 CURVE",
"955 992 OFFCURVE",
"1016 1053 OFFCURVE",
"1032 1083 CURVE"
);
},
{
closed = 1;
nodes = (
"171 1531 LINE SMOOTH",
"78 1531 OFFCURVE",
"0 1468 OFFCURVE",
"0 1376 CURVE SMOOTH",
"0 176 LINE SMOOTH",
"0 84 OFFCURVE",
"78 6 OFFCURVE",
"171 6 CURVE SMOOTH",
"1369 6 LINE SMOOTH",
"1463 6 OFFCURVE",
"1539 84 OFFCURVE",
"1539 176 CURVE SMOOTH",
"1539 1376 LINE SMOOTH",
"1539 1468 OFFCURVE",
"1463 1531 OFFCURVE",
"1369 1531 CURVE SMOOTH"
);
},
{
closed = 1;
nodes = (
"1262 637 OFFCURVE",
"1247 606 OFFCURVE",
"1232 576 CURVE SMOOTH",
"1217 545 OFFCURVE",
"1201 515 OFFCURVE",
"1184 484 CURVE SMOOTH",
"1171 454 OFFCURVE",
"1155 437 OFFCURVE",
"1123 408 CURVE SMOOTH",
"1110 391 OFFCURVE",
"1077 360 OFFCURVE",
"1047 346 CURVE SMOOTH",
"1016 330 OFFCURVE",
"1001 314 OFFCURVE",
"970 299 CURVE SMOOTH",
"940 284 OFFCURVE",
"908 284 OFFCURVE",
"864 269 CURVE SMOOTH",
"831 269 OFFCURVE",
"801 269 OFFCURVE",
"770 269 CURVE SMOOTH",
"740 269 OFFCURVE",
"694 269 OFFCURVE",
"662 269 CURVE SMOOTH",
"632 284 OFFCURVE",
"601 284 OFFCURVE",
"571 299 CURVE SMOOTH",
"539 314 OFFCURVE",
"509 330 OFFCURVE",
"477 346 CURVE SMOOTH",
"464 360 OFFCURVE",
"431 391 OFFCURVE",
"401 408 CURVE SMOOTH",
"386 437 OFFCURVE",
"370 454 OFFCURVE",
"340 484 CURVE SMOOTH",
"324 515 OFFCURVE",
"309 545 OFFCURVE",
"292 576 CURVE SMOOTH",
"292 606 OFFCURVE",
"279 637 OFFCURVE",
"262 667 CURVE SMOOTH",
"262 700 OFFCURVE",
"262 730 OFFCURVE",
"262 775 CURVE SMOOTH",
"262 807 OFFCURVE",
"262 837 OFFCURVE",
"262 869 CURVE SMOOTH",
"279 915 OFFCURVE",
"292 945 OFFCURVE",
"292 976 CURVE SMOOTH",
"309 1006 OFFCURVE",
"324 1022 OFFCURVE",
"340 1053 CURVE SMOOTH",
"370 1083 OFFCURVE",
"386 1115 OFFCURVE",
"401 1130 CURVE SMOOTH",
"431 1161 OFFCURVE",
"464 1176 OFFCURVE",
"477 1191 CURVE SMOOTH",
"509 1206 OFFCURVE",
"539 1222 OFFCURVE",
"571 1237 CURVE SMOOTH",
"601 1252 OFFCURVE",
"632 1268 OFFCURVE",
"662 1268 CURVE SMOOTH",
"723 1283 OFFCURVE",
"801 1283 OFFCURVE",
"864 1268 CURVE SMOOTH",
"908 1268 OFFCURVE",
"940 1252 OFFCURVE",
"970 1237 CURVE SMOOTH",
"1001 1222 OFFCURVE",
"1016 1206 OFFCURVE",
"1047 1191 CURVE SMOOTH",
"1077 1176 OFFCURVE",
"1110 1161 OFFCURVE",
"1123 1130 CURVE SMOOTH",
"1155 1115 OFFCURVE",
"1171 1083 OFFCURVE",
"1184 1053 CURVE SMOOTH",
"1201 1022 OFFCURVE",
"1217 1006 OFFCURVE",
"1232 976 CURVE SMOOTH",
"1247 945 OFFCURVE",
"1262 915 OFFCURVE",
"1262 869 CURVE SMOOTH",
"1278 837 OFFCURVE",
"1278 807 OFFCURVE",
"1278 775 CURVE SMOOTH",
"1278 730 OFFCURVE",
"1278 700 OFFCURVE",
"1262 667 CURVE SMOOTH"
);
},
{
closed = 1;
nodes = (
"970 590 OFFCURVE",
"1001 484 OFFCURVE",
"1001 437 CURVE",
"1016 454 OFFCURVE",
"1032 469 OFFCURVE",
"1047 484 CURVE SMOOTH",
"1077 499 OFFCURVE",
"1093 515 OFFCURVE",
"1110 545 CURVE SMOOTH",
"1123 560 OFFCURVE",
"1123 590 OFFCURVE",
"1140 606 CURVE SMOOTH",
"1155 637 OFFCURVE",
"1155 667 OFFCURVE",
"1171 684 CURVE SMOOTH",
"1171 700 OFFCURVE",
"1171 700 OFFCURVE",
"1171 700 CURVE",
"1140 713 OFFCURVE",
"1077 730 OFFCURVE",
"1001 730 CURVE SMOOTH",
"986 730 OFFCURVE",
"955 713 OFFCURVE",
"925 713 CURVE"
);
},
{
closed = 1;
nodes = (
"1123 960 OFFCURVE",
"1123 976 OFFCURVE",
"1110 1006 CURVE SMOOTH",
"1093 1006 OFFCURVE",
"1093 1022 OFFCURVE",
"1093 1022 CURVE",
"1062 992 OFFCURVE",
"1001 930 OFFCURVE",
"864 869 CURVE",
"879 852 OFFCURVE",
"879 837 OFFCURVE",
"893 822 CURVE SMOOTH",
"893 807 OFFCURVE",
"893 807 OFFCURVE",
"893 791 CURVE",
"925 807 OFFCURVE",
"955 807 OFFCURVE",
"986 807 CURVE SMOOTH",
"1077 807 OFFCURVE",
"1140 791 OFFCURVE",
"1171 791 CURVE",
"1171 807 OFFCURVE",
"1171 837 OFFCURVE",
"1171 852 CURVE SMOOTH",
"1155 882 OFFCURVE",
"1155 898 OFFCURVE",
"1140 930 CURVE SMOOTH"
);
}
);
width = 1536;
}
);
unicode = F014;
},
{
glyphname = uniF015;
lastChange = "2013-04-27 22:02:17 +0000";
layers = (
{
layerId = "42DB7337-2365-47C1-9F22-9A1F4C2C0B2F";
name = Regular;
paths = (
{
closed = 1;
nodes = (
"1458 967 OFFCURVE",
"1446 1013 OFFCURVE",
"1429 1053 CURVE SMOOTH",
"1407 1093 OFFCURVE",
"1390 1138 OFFCURVE",
"1361 1171 CURVE SMOOTH",
"1338 1213 OFFCURVE",
"1309 1246 OFFCURVE",
"1276 1280 CURVE SMOOTH",
"1248 1308 OFFCURVE",
"1207 1337 OFFCURVE",
"1174 1366 CURVE SMOOTH",
"1133 1388 OFFCURVE",
"1094 1410 OFFCURVE",
"1055 1428 CURVE SMOOTH",
"1009 1444 OFFCURVE",
"970 1461 OFFCURVE",
"924 1473 CURVE SMOOTH",
"827 1490 OFFCURVE",
"731 1490 OFFCURVE",
"641 1473 CURVE SMOOTH",
"595 1461 OFFCURVE",
"549 1444 OFFCURVE",
"504 1428 CURVE SMOOTH",
"464 1410 OFFCURVE",
"425 1388 OFFCURVE",
"385 1366 CURVE SMOOTH",
"351 1337 OFFCURVE",
"317 1308 OFFCURVE",
"282 1280 CURVE SMOOTH",
"254 1246 OFFCURVE",
"225 1213 OFFCURVE",
"197 1171 CURVE SMOOTH",
"175 1138 OFFCURVE",
"151 1098 OFFCURVE",
"135 1053 CURVE SMOOTH",
"118 1013 OFFCURVE",
"101 967 OFFCURVE",
"95 923 CURVE SMOOTH",
"83 877 OFFCURVE",
"79 825 OFFCURVE",
"79 780 CURVE SMOOTH",
"79 730 OFFCURVE",
"83 684 OFFCURVE",
"95 638 CURVE SMOOTH",
"101 593 OFFCURVE",
"118 547 OFFCURVE",
"135 503 CURVE SMOOTH",
"151 462 OFFCURVE",
"175 423 OFFCURVE",
"197 383 CURVE SMOOTH",
"225 349 OFFCURVE",
"254 316 OFFCURVE",
"282 281 CURVE SMOOTH",
"317 247 OFFCURVE",
"351 218 OFFCURVE",
"385 196 CURVE SMOOTH",
"425 167 OFFCURVE",
"464 144 OFFCURVE",
"504 127 CURVE SMOOTH",
"549 111 OFFCURVE",
"595 98 OFFCURVE",
"641 87 CURVE SMOOTH",
"685 76 OFFCURVE",
"731 71 OFFCURVE",
"782 71 CURVE SMOOTH",
"827 71 OFFCURVE",
"872 76 OFFCURVE",
"924 87 CURVE SMOOTH",
"970 98 OFFCURVE",
"1009 111 OFFCURVE",
"1055 127 CURVE SMOOTH",
"1094 144 OFFCURVE",
"1133 167 OFFCURVE",
"1174 196 CURVE SMOOTH",
"1207 218 OFFCURVE",
"1248 247 OFFCURVE",
"1276 281 CURVE SMOOTH",
"1309 316 OFFCURVE",
"1338 349 OFFCURVE",
"1361 383 CURVE SMOOTH",
"1390 423 OFFCURVE",
"1407 462 OFFCURVE",
"1429 503 CURVE SMOOTH",
"1446 547 OFFCURVE",
"1458 593 OFFCURVE",
"1468 638 CURVE SMOOTH",
"1475 684 OFFCURVE",
"1481 730 OFFCURVE",
"1481 780 CURVE SMOOTH",
"1481 825 OFFCURVE",
"1475 877 OFFCURVE",
"1468 923 CURVE SMOOTH"
);
},
{
closed = 1;
nodes = (
"702 1359 OFFCURVE",
"741 1366 OFFCURVE",
"782 1366 CURVE SMOOTH",
"822 1366 OFFCURVE",
"861 1359 OFFCURVE",
"895 1354 CURVE SMOOTH",
"935 1343 OFFCURVE",
"970 1330 OFFCURVE",
"1003 1320 CURVE SMOOTH",
"1044 1302 OFFCURVE",
"1071 1285 OFFCURVE",
"1105 1263 CURVE SMOOTH",
"1129 1252 OFFCURVE",
"1146 1235 OFFCURVE",
"1162 1217 CURVE",
"1146 1189 OFFCURVE",
"1055 1082 OFFCURVE",
"861 1008 CURVE",
"771 1178 OFFCURVE",
"669 1314 OFFCURVE",
"646 1347 CURVE",
"651 1347 OFFCURVE",
"656 1347 OFFCURVE",
"663 1354 CURVE SMOOTH"
);
},
{
closed = 1;
nodes = (
"259 1041 OFFCURVE",
"278 1076 OFFCURVE",
"300 1103 CURVE SMOOTH",
"317 1138 OFFCURVE",
"344 1167 OFFCURVE",
"367 1195 CURVE SMOOTH",
"395 1217 OFFCURVE",
"425 1246 OFFCURVE",
"454 1263 CURVE SMOOTH",
"481 1280 OFFCURVE",
"504 1298 OFFCURVE",
"532 1308 CURVE",
"555 1274 OFFCURVE",
"651 1138 OFFCURVE",
"741 973 CURVE",
"493 906 OFFCURVE",
"271 900 OFFCURVE",
"214 900 CURVE",
"220 939 OFFCURVE",
"232 973 OFFCURVE",
"242 1008 CURVE SMOOTH"
);
},
{
closed = 1;
nodes = (
"327 411 OFFCURVE",
"310 434 OFFCURVE",
"300 451 CURVE SMOOTH",
"278 486 OFFCURVE",
"259 518 OFFCURVE",
"242 553 CURVE SMOOTH",
"232 587 OFFCURVE",
"220 621 OFFCURVE",
"209 662 CURVE SMOOTH",
"203 701 OFFCURVE",
"197 740 OFFCURVE",
"197 780 CURVE SMOOTH",
"197 786 OFFCURVE",
"197 792 OFFCURVE",
"197 797 CURVE",
"265 797 OFFCURVE",
"521 803 OFFCURVE",
"793 883 CURVE",
"810 849 OFFCURVE",
"827 815 OFFCURVE",
"844 780 CURVE",
"833 780 OFFCURVE",
"827 775 OFFCURVE",
"816 775 CURVE SMOOTH",
"532 684 OFFCURVE",
"373 446 OFFCURVE",
"344 394 CURVE"
);
},
{
closed = 1;
nodes = (
"970 224 OFFCURVE",
"935 213 OFFCURVE",
"895 206 CURVE SMOOTH",
"822 189 OFFCURVE",
"741 189 OFFCURVE",
"663 206 CURVE SMOOTH",
"624 213 OFFCURVE",
"589 224 OFFCURVE",
"555 241 CURVE SMOOTH",
"521 252 OFFCURVE",
"487 274 OFFCURVE",
"454 292 CURVE SMOOTH",
"441 303 OFFCURVE",
"430 316 OFFCURVE",
"419 320 CURVE",
"441 372 OFFCURVE",
"566 577 OFFCURVE",
"878 684 CURVE SMOOTH",
"878 684 OFFCURVE",
"878 684 OFFCURVE",
"885 684 CURVE",
"963 474 OFFCURVE",
"998 303 OFFCURVE",
"1009 241 CURVE",
"1009 241 OFFCURVE",
"1009 241 OFFCURVE",
"1003 241 CURVE SMOOTH"
);
},
{
closed = 1;
nodes = (
"1344 621 OFFCURVE",
"1333 587 OFFCURVE",
"1316 553 CURVE SMOOTH",
"1299 518 OFFCURVE",
"1282 486 OFFCURVE",
"1264 451 CURVE SMOOTH",
"1241 423 OFFCURVE",
"1220 394 OFFCURVE",
"1191 366 CURVE SMOOTH",
"1168 338 OFFCURVE",
"1139 316 OFFCURVE",
"1105 298 CURVE",
"1100 343 OFFCURVE",
"1066 508 OFFCURVE",
"992 712 CURVE",
"1162 740 OFFCURVE",
"1316 701 OFFCURVE",
"1355 689 CURVE",
"1355 678 OFFCURVE",
"1351 672 OFFCURVE",
"1351 662 CURVE SMOOTH"
);
},
{
closed = 1;
nodes = (
"953 815 OFFCURVE",
"946 825 OFFCURVE",
"946 837 CURVE SMOOTH",
"930 865 OFFCURVE",
"918 893 OFFCURVE",
"907 923 CURVE",
"1111 1008 OFFCURVE",
"1207 1121 OFFCURVE",
"1231 1149 CURVE",
"1241 1138 OFFCURVE",
"1253 1121 OFFCURVE",
"1264 1103 CURVE SMOOTH",
"1282 1076 OFFCURVE",
"1299 1041 OFFCURVE",
"1316 1008 CURVE SMOOTH",
"1333 973 OFFCURVE",
"1344 933 OFFCURVE",
"1351 900 CURVE SMOOTH",
"1355 860 OFFCURVE",
"1361 825 OFFCURVE",
"1361 786 CURVE",
"1321 797 OFFCURVE",
"1139 825 OFFCURVE",
"958 803 CURVE"
);
}
);
width = 1536;
}
);
unicode = F015;
},
{
glyphname = uniF016;
lastChange = "2013-04-27 22:23:17 +0000";
layers = (
{
layerId = "42DB7337-2365-47C1-9F22-9A1F4C2C0B2F";
name = Regular;
paths = (
{
closed = 1;
nodes = (
"179 1536 LINE SMOOTH",
"74 1536 OFFCURVE",
"11 1454 OFFCURVE",
"11 1370 CURVE SMOOTH",
"11 173 LINE SMOOTH",
"11 87 OFFCURVE",
"74 2 OFFCURVE",
"179 2 CURVE SMOOTH",
"1355 2 LINE SMOOTH",
"1462 2 OFFCURVE",
"1525 87 OFFCURVE",
"1525 173 CURVE SMOOTH",
"1525 1370 LINE SMOOTH",
"1525 1454 OFFCURVE",
"1462 1536 OFFCURVE",
"1355 1536 CURVE SMOOTH"
);
},
{
closed = 1;
nodes = (
"1230 972 OFFCURVE",
"1230 972 OFFCURVE",
"1230 949 CURVE SMOOTH",
"1230 654 OFFCURVE",
"1020 320 OFFCURVE",
"599 320 CURVE SMOOTH",
"473 320 OFFCURVE",
"348 361 OFFCURVE",
"262 424 CURVE",
"285 424 OFFCURVE",
"285 424 OFFCURVE",
"305 424 CURVE SMOOTH",
"409 424 OFFCURVE",
"516 444 OFFCURVE",
"599 508 CURVE",
"495 508 OFFCURVE",
"409 571 OFFCURVE",
"389 677 CURVE",
"389 677 OFFCURVE",
"409 677 OFFCURVE",
"432 677 CURVE SMOOTH",
"452 677 OFFCURVE",
"452 677 OFFCURVE",
"473 677 CURVE",
"368 698 OFFCURVE",
"305 782 OFFCURVE",
"305 886 CURVE SMOOTH",
"305 886 OFFCURVE",
"305 886 OFFCURVE",
"305 908 CURVE",
"326 886 OFFCURVE",
"368 865 OFFCURVE",
"409 865 CURVE",
"348 908 OFFCURVE",
"305 972 OFFCURVE",
"305 1055 CURVE SMOOTH",
"305 1096 OFFCURVE",
"305 1139 OFFCURVE",
"326 1159 CURVE",
"452 1033 OFFCURVE",
"599 949 OFFCURVE",
"790 929 CURVE",
"790 949 OFFCURVE",
"790 972 OFFCURVE",
"790 992 CURVE SMOOTH",
"790 1119 OFFCURVE",
"893 1202 OFFCURVE",
"1020 1202 CURVE SMOOTH",
"1083 1202 OFFCURVE",
"1148 1180 OFFCURVE",
"1187 1139 CURVE",
"1230 1159 OFFCURVE",
"1271 1159 OFFCURVE",
"1315 1180 CURVE",
"1295 1139 OFFCURVE",
"1252 1096 OFFCURVE",
"1208 1076 CURVE",
"1252 1076 OFFCURVE",
"1295 1096 OFFCURVE",
"1335 1096 CURVE",
"1315 1055 OFFCURVE",
"1271 1011 OFFCURVE",
"1230 992 CURVE"
);
}
);
width = 1536;
}
);
unicode = F016;
},
{
glyphname = uniF017;
lastChange = "2013-04-27 22:23:20 +0000";
layers = (
{
layerId = "42DB7337-2365-47C1-9F22-9A1F4C2C0B2F";
name = Regular;
paths = (
{
closed = 1;
nodes = (
"1770 1295 OFFCURVE",
"1693 1273 OFFCURVE",
"1625 1263 CURVE",
"1693 1307 OFFCURVE",
"1759 1383 OFFCURVE",
"1781 1462 CURVE",
"1714 1428 OFFCURVE",
"1636 1394 OFFCURVE",
"1548 1374 CURVE",
"1480 1453 OFFCURVE",
"1390 1496 OFFCURVE",
"1279 1496 CURVE SMOOTH",
"1078 1496 OFFCURVE",
"911 1329 OFFCURVE",
"911 1128 CURVE SMOOTH",
"911 1094 OFFCURVE",
"923 1073 OFFCURVE",
"923 1039 CURVE",
"620 1060 OFFCURVE",
"341 1205 OFFCURVE",
"163 1428 CURVE",
"129 1374 OFFCURVE",
"120 1307 OFFCURVE",
"120 1239 CURVE SMOOTH",
"120 1118 OFFCURVE",
"185 1004 OFFCURVE",
"274 938 CURVE",
"219 938 OFFCURVE",
"163 949 OFFCURVE",
"109 983 CURVE",
"109 983 OFFCURVE",
"109 983 OFFCURVE",
"109 983 CURVE SMOOTH",
"109 804 OFFCURVE",
"240 648 OFFCURVE",
"409 614 CURVE",
"375 603 OFFCURVE",
"341 603 OFFCURVE",
"309 603 CURVE SMOOTH",
"285 603 OFFCURVE",
"264 603 OFFCURVE",
"240 614 CURVE",
"285 470 OFFCURVE",
"420 359 OFFCURVE",
"588 359 CURVE",
"464 258 OFFCURVE",
"298 203 OFFCURVE",
"129 203 CURVE SMOOTH",
"95 203 OFFCURVE",
"75 203 OFFCURVE",
"41 203 CURVE",
"208 100 OFFCURVE",
"398 34 OFFCURVE",
"610 34 CURVE SMOOTH",
"1279 34 OFFCURVE",
"1648 603 OFFCURVE",
"1648 1083 CURVE SMOOTH",
"1648 1105 OFFCURVE",
"1648 1118 OFFCURVE",
"1648 1128 CURVE",
"1725 1184 OFFCURVE",
"1781 1250 OFFCURVE",
"1838 1318 CURVE"
);
}
);
width = 1843;
}
);
unicode = F017;
},
{
glyphname = uniF018;
lastChange = "2013-04-27 22:23:24 +0000";
layers = (
{
layerId = "42DB7337-2365-47C1-9F22-9A1F4C2C0B2F";
name = Regular;
paths = (
{
closed = 1;
nodes = (
"169 1526 LINE SMOOTH",
"77 1526 OFFCURVE",
"0 1464 OFFCURVE",
"0 1372 CURVE SMOOTH",
"0 176 LINE SMOOTH",
"0 84 OFFCURVE",
"77 8 OFFCURVE",
"169 8 CURVE SMOOTH",
"1364 8 LINE SMOOTH",
"1456 8 OFFCURVE",
"1532 84 OFFCURVE",
"1532 176 CURVE SMOOTH",
"1532 1372 LINE SMOOTH",
"1532 1464 OFFCURVE",
"1456 1526 OFFCURVE",
"1364 1526 CURVE SMOOTH"
);
},
{
closed = 1;
nodes = (
"842 713 LINE",
"842 253 LINE",
"660 253 LINE",
"660 713 LINE",
"536 713 LINE",
"536 882 LINE",
"660 882 LINE",
"660 882 OFFCURVE",
"660 958 OFFCURVE",
"660 1018 CURVE SMOOTH",
"660 1142 OFFCURVE",
"736 1234 OFFCURVE",
"905 1234 CURVE SMOOTH",
"966 1234 OFFCURVE",
"1011 1234 OFFCURVE",
"1011 1234 CURVE",
"1011 1081 LINE",
"1011 1081 OFFCURVE",
"966 1081 OFFCURVE",
"905 1081 CURVE SMOOTH",
"842 1081 OFFCURVE",
"842 1050 OFFCURVE",
"842 1002 CURVE SMOOTH",
"842 1002 OFFCURVE",
"842 990 OFFCURVE",
"842 990 CURVE",
"842 990 OFFCURVE",
"842 958 OFFCURVE",
"842 882 CURVE",
"1011 882 LINE",
"1011 713 LINE"
);
}
);
width = 1536;
}
);
unicode = F018;
},
{
glyphname = uniF019;
lastChange = "2013-04-27 22:23:27 +0000";
layers = (
{
layerId = "42DB7337-2365-47C1-9F22-9A1F4C2C0B2F";
name = Regular;
paths = (
{
closed = 1;
nodes = (
"0 862 LINE SMOOTH",
"0 841 OFFCURVE",
"18 823 OFFCURVE",
"39 823 CURVE SMOOTH",
"164 823 LINE",
"164 39 LINE SMOOTH",
"164 18 OFFCURVE",
"182 0 OFFCURVE",
"203 0 CURVE SMOOTH",
"461 0 LINE SMOOTH",
"482 0 OFFCURVE",
"500 18 OFFCURVE",
"500 39 CURVE SMOOTH",
"500 823 LINE",
"707 823 LINE SMOOTH",
"728 823 OFFCURVE",
"745 838 OFFCURVE",
"745 858 CURVE",
"762 1063 LINE",
"762 1087 OFFCURVE",
"743 1106 OFFCURVE",
"723 1106 CURVE SMOOTH",
"500 1106 LINE",
"500 1194 LINE SMOOTH",
"500 1265 OFFCURVE",
"509 1278 OFFCURVE",
"578 1278 CURVE SMOOTH",
"625 1278 OFFCURVE",
"672 1273 OFFCURVE",
"717 1262 CURVE",
"727 1259 OFFCURVE",
"737 1261 OFFCURVE",
"748 1268 CURVE",
"756 1275 OFFCURVE",
"761 1283 OFFCURVE",
"764 1294 CURVE",
"791 1493 LINE SMOOTH",
"794 1514 OFFCURVE",
"784 1529 OFFCURVE",
"762 1536 CURVE SMOOTH",
"690 1557 OFFCURVE",
"613 1567 OFFCURVE",
"530 1567 CURVE SMOOTH",
"286 1566 OFFCURVE",
"164 1447 OFFCURVE",
"164 1208 CURVE SMOOTH",
"164 1106 LINE",
"39 1106 LINE SMOOTH",
"18 1106 OFFCURVE",
"0 1086 OFFCURVE",
"0 1065 CURVE SMOOTH"
);
}
);
width = 790;
}
);
unicode = F019;
},
{
glyphname = uniF021;
lastChange = "2013-04-28 00:05:15 +0000";
layers = (
{
layerId = "42DB7337-2365-47C1-9F22-9A1F4C2C0B2F";
name = Regular;
paths = (
{
closed = 1;
nodes = (
"1064 517 OFFCURVE",
"1049 517 OFFCURVE",
"1030 517 CURVE SMOOTH",
"1014 517 OFFCURVE",
"1000 506 OFFCURVE",
"993 495 CURVE SMOOTH",
"979 481 OFFCURVE",
"976 461 OFFCURVE",
"976 446 CURVE SMOOTH",
"979 429 OFFCURVE",
"985 411 OFFCURVE",
"1000 401 CURVE SMOOTH",
"1014 395 OFFCURVE",
"1030 389 OFFCURVE",
"1049 389 CURVE SMOOTH",
"1064 395 OFFCURVE",
"1080 401 OFFCURVE",
"1093 417 CURVE SMOOTH",
"1101 429 OFFCURVE",
"1109 446 OFFCURVE",
"1101 461 CURVE SMOOTH",
"1101 481 OFFCURVE",
"1093 495 OFFCURVE",
"1080 506 CURVE SMOOTH"
);
},
{
closed = 1;
nodes = (
"162 1537 LINE SMOOTH",
"68 1537 OFFCURVE",
"-4 1463 OFFCURVE",
"-4 1375 CURVE SMOOTH",
"-4 166 LINE SMOOTH",
"-4 71 OFFCURVE",
"68 -1 OFFCURVE",
"162 -1 CURVE SMOOTH",
"1372 -1 LINE SMOOTH",
"1460 -1 OFFCURVE",
"1537 71 OFFCURVE",
"1537 166 CURVE SMOOTH",
"1537 1375 LINE SMOOTH",
"1537 1463 OFFCURVE",
"1460 1537 OFFCURVE",
"1372 1537 CURVE SMOOTH"
);
},
{
closed = 1;
nodes = (
"1209 407 OFFCURVE",
"1151 315 OFFCURVE",
"1070 310 CURVE",
"1070 310 OFFCURVE",
"999 307 OFFCURVE",
"952 307 CURVE SMOOTH",
"899 307 OFFCURVE",
"757 289 OFFCURVE",
"707 272 CURVE SMOOTH",
"657 260 OFFCURVE",
"569 244 OFFCURVE",
"569 244 CURVE",
"485 236 OFFCURVE",
"413 307 OFFCURVE",
"402 401 CURVE",
"383 711 LINE",
"324 758 OFFCURVE",
"275 817 OFFCURVE",
"264 890 CURVE SMOOTH",
"247 1041 OFFCURVE",
"357 1181 OFFCURVE",
"518 1202 CURVE SMOOTH",
"585 1206 OFFCURVE",
"654 1190 OFFCURVE",
"707 1156 CURVE",
"755 1206 OFFCURVE",
"814 1235 OFFCURVE",
"886 1247 CURVE SMOOTH",
"1042 1261 OFFCURVE",
"1187 1161 OFFCURVE",
"1209 1012 CURVE SMOOTH",
"1215 933 OFFCURVE",
"1180 861 OFFCURVE",
"1135 808 CURVE",
"1199 502 LINE"
);
}
);
width = 1536;
}
);
unicode = F021;
},
{
glyphname = uniF022;
lastChange = "2013-04-27 22:23:34 +0000";
layers = (
{
layerId = "42DB7337-2365-47C1-9F22-9A1F4C2C0B2F";
name = Regular;
paths = (
{
closed = 1;
nodes = (
"1436 940 OFFCURVE",
"1490 1050 OFFCURVE",
"1472 1164 CURVE SMOOTH",
"1445 1380 OFFCURVE",
"1240 1532 OFFCURVE",
"1006 1505 CURVE SMOOTH",
"901 1496 OFFCURVE",
"820 1442 OFFCURVE",
"749 1380 CURVE",
"667 1424 OFFCURVE",
"566 1451 OFFCURVE",
"470 1442 CURVE SMOOTH",
"236 1407 OFFCURVE",
"66 1212 OFFCURVE",
"93 987 CURVE SMOOTH",
"111 876 OFFCURVE",
"191 786 OFFCURVE",
"272 724 CURVE",
"300 269 LINE",
"318 125 OFFCURVE",
"425 27 OFFCURVE",
"541 45 CURVE",
"541 45 OFFCURVE",
"676 63 OFFCURVE",
"749 81 CURVE SMOOTH",
"820 107 OFFCURVE",
"1023 125 OFFCURVE",
"1104 134 CURVE SMOOTH",
"1167 134 OFFCURVE",
"1278 134 OFFCURVE",
"1278 134 CURVE",
"1401 152 OFFCURVE",
"1481 277 OFFCURVE",
"1463 418 CURVE",
"1374 858 LINE"
);
},
{
closed = 1;
nodes = (
"1293 269 OFFCURVE",
"1278 260 OFFCURVE",
"1249 251 CURVE SMOOTH",
"1220 251 OFFCURVE",
"1194 260 OFFCURVE",
"1176 269 CURVE SMOOTH",
"1158 286 OFFCURVE",
"1144 304 OFFCURVE",
"1144 331 CURVE SMOOTH",
"1144 358 OFFCURVE",
"1144 386 OFFCURVE",
"1158 404 CURVE SMOOTH",
"1176 418 OFFCURVE",
"1194 440 OFFCURVE",
"1220 440 CURVE SMOOTH",
"1249 440 OFFCURVE",
"1278 440 OFFCURVE",
"1293 418 CURVE SMOOTH",
"1311 404 OFFCURVE",
"1320 386 OFFCURVE",
"1329 358 CURVE SMOOTH",
"1329 331 OFFCURVE",
"1329 313 OFFCURVE",
"1311 286 CURVE SMOOTH"
);
}
);
width = 1597;
}
);
unicode = F022;
},
{
glyphname = uniF023;
lastChange = "2013-04-27 22:23:40 +0000";
layers = (
{
layerId = "42DB7337-2365-47C1-9F22-9A1F4C2C0B2F";
name = Regular;
paths = (
{
closed = 1;
nodes = (
"834 829 LINE",
"834 829 OFFCURVE",
"834 829 OFFCURVE",
"834 829 CURVE"
);
},
{
closed = 1;
nodes = (
"176 1534 LINE SMOOTH",
"83 1534 OFFCURVE",
"7 1457 OFFCURVE",
"7 1366 CURVE SMOOTH",
"7 170 LINE SMOOTH",
"7 78 OFFCURVE",
"83 1 OFFCURVE",
"176 1 CURVE SMOOTH",
"1370 1 LINE SMOOTH",
"1447 1 OFFCURVE",
"1524 78 OFFCURVE",
"1524 170 CURVE SMOOTH",
"1524 1366 LINE SMOOTH",
"1524 1457 OFFCURVE",
"1447 1534 OFFCURVE",
"1370 1534 CURVE SMOOTH"
);
},
{
closed = 1;
nodes = (
"329 308 LINE",
"329 921 LINE",
"527 921 LINE",
"527 308 LINE"
);
},
{
closed = 1;
nodes = (
"420 1013 LINE SMOOTH",
"359 1013 OFFCURVE",
"313 1059 OFFCURVE",
"313 1105 CURVE SMOOTH",
"313 1166 OFFCURVE",
"359 1212 OFFCURVE",
"420 1212 CURVE SMOOTH",
"497 1212 OFFCURVE",
"543 1166 OFFCURVE",
"543 1105 CURVE SMOOTH",
"543 1059 OFFCURVE",
"497 1013 OFFCURVE",
"420 1013 CURVE SMOOTH"
);
},
{
closed = 1;
nodes = (
"1049 308 LINE",
"1049 646 LINE SMOOTH",
"1049 722 OFFCURVE",
"1019 783 OFFCURVE",
"957 783 CURVE SMOOTH",
"896 783 OFFCURVE",
"865 737 OFFCURVE",
"850 706 CURVE SMOOTH",
"834 691 OFFCURVE",
"834 676 OFFCURVE",
"834 660 CURVE SMOOTH",
"834 308 LINE",
"635 308 LINE SMOOTH",
"635 308 OFFCURVE",
"635 860 OFFCURVE",
"635 921 CURVE",
"834 921 LINE",
"834 829 LINE",
"865 876 OFFCURVE",
"910 936 OFFCURVE",
"1019 936 CURVE SMOOTH",
"1156 936 OFFCURVE",
"1248 844 OFFCURVE",
"1248 660 CURVE SMOOTH",
"1248 308 LINE"
);
}
);
width = 1536;
}
);
unicode = F023;
},
{
glyphname = uniF024;
lastChange = "2013-04-27 22:23:43 +0000";
layers = (
{
layerId = "42DB7337-2365-47C1-9F22-9A1F4C2C0B2F";
name = Regular;
paths = (
{
closed = 1;
nodes = (
"0 1275 OFFCURVE",
"89 1186 OFFCURVE",
"190 1186 CURVE SMOOTH",
"291 1186 OFFCURVE",
"381 1269 OFFCURVE",
"381 1376 CURVE SMOOTH",
"381 1485 OFFCURVE",
"293 1567 OFFCURVE",
"190 1567 CURVE SMOOTH",
"87 1567 OFFCURVE",
"0 1480 OFFCURVE",
"0 1376 CURVE SMOOTH"
);
},
{
closed = 1;
nodes = (
"10 41 LINE SMOOTH",
"10 20 OFFCURVE",
"30 0 OFFCURVE",
"51 0 CURVE SMOOTH",
"332 0 LINE SMOOTH",
"353 0 OFFCURVE",
"373 20 OFFCURVE",
"373 41 CURVE SMOOTH",
"373 1032 LINE SMOOTH",
"373 1055 OFFCURVE",
"353 1073 OFFCURVE",
"332 1073 CURVE SMOOTH",
"51 1073 LINE SMOOTH",
"30 1073 OFFCURVE",
"10 1053 OFFCURVE",
"10 1032 CURVE SMOOTH"
);
},
{
closed = 1;
nodes = (
"524 41 LINE SMOOTH",
"524 20 OFFCURVE",
"544 0 OFFCURVE",
"565 0 CURVE SMOOTH",
"846 0 LINE SMOOTH",
"867 0 OFFCURVE",
"887 20 OFFCURVE",
"887 41 CURVE SMOOTH",
"887 578 LINE SMOOTH",
"887 719 OFFCURVE",
"934 801 OFFCURVE",
"1069 801 CURVE SMOOTH",
"1176 801 OFFCURVE",
"1208 753 OFFCURVE",
"1208 645 CURVE SMOOTH",
"1208 41 LINE SMOOTH",
"1208 20 OFFCURVE",
"1226 0 OFFCURVE",
"1247 0 CURVE SMOOTH",
"1536 0 LINE SMOOTH",
"1557 0 OFFCURVE",
"1577 20 OFFCURVE",
"1577 41 CURVE SMOOTH",
"1577 709 LINE SMOOTH",
"1577 966 OFFCURVE",
"1420 1098 OFFCURVE",
"1159 1098 CURVE SMOOTH",
"1043 1098 OFFCURVE",
"950 1065 OFFCURVE",
"879 999 CURVE",
"879 1032 OFFCURVE",
"875 1052 OFFCURVE",
"868 1061 CURVE",
"861 1069 OFFCURVE",
"851 1073 OFFCURVE",
"838 1073 CURVE SMOOTH",
"565 1073 LINE SMOOTH",
"544 1073 OFFCURVE",
"524 1053 OFFCURVE",
"524 1032 CURVE SMOOTH"
);
}
);
width = 1576;
}
);
unicode = F024;
},
{
glyphname = uniF025;
lastChange = "2013-04-27 23:08:53 +0000";
layers = (
{
layerId = "42DB7337-2365-47C1-9F22-9A1F4C2C0B2F";
name = Regular;
paths = (
{
closed = 1;
nodes = (
"176 1530 LINE SMOOTH",
"85 1530 OFFCURVE",
"7 1455 OFFCURVE",
"7 1362 CURVE SMOOTH",
"7 166 LINE SMOOTH",
"7 75 OFFCURVE",
"85 -2 OFFCURVE",
"176 -2 CURVE SMOOTH",
"1372 -2 LINE SMOOTH",
"1464 -2 OFFCURVE",
"1526 75 OFFCURVE",
"1526 166 CURVE SMOOTH",
"1526 1362 LINE SMOOTH",
"1526 1455 OFFCURVE",
"1464 1530 OFFCURVE",
"1372 1530 CURVE SMOOTH"
);
},
{
closed = 1;
nodes = (
"912 273 OFFCURVE",
"897 288 OFFCURVE",
"897 288 CURVE SMOOTH",
"897 319 OFFCURVE",
"897 366 OFFCURVE",
"897 443 CURVE SMOOTH",
"897 488 OFFCURVE",
"881 517 OFFCURVE",
"866 533 CURVE",
"974 533 OFFCURVE",
"1096 581 OFFCURVE",
"1096 779 CURVE SMOOTH",
"1096 840 OFFCURVE",
"1081 887 OFFCURVE",
"1036 917 CURVE",
"1050 933 OFFCURVE",
"1065 978 OFFCURVE",
"1036 1055 CURVE",
"1036 1055 OFFCURVE",
"988 1071 OFFCURVE",
"897 994 CURVE",
"852 1009 OFFCURVE",
"820 1009 OFFCURVE",
"774 1009 CURVE SMOOTH",
"728 1009 OFFCURVE",
"682 1009 OFFCURVE",
"636 994 CURVE",
"544 1071 OFFCURVE",
"498 1055 OFFCURVE",
"498 1055 CURVE",
"482 978 OFFCURVE",
"498 933 OFFCURVE",
"498 917 CURVE",
"468 887 OFFCURVE",
"453 840 OFFCURVE",
"453 779 CURVE SMOOTH",
"453 581 OFFCURVE",
"559 533 OFFCURVE",
"682 533 CURVE",
"668 517 OFFCURVE",
"652 488 OFFCURVE",
"652 457 CURVE",
"620 443 OFFCURVE",
"544 426 OFFCURVE",
"498 503 CURVE",
"498 503 OFFCURVE",
"468 550 OFFCURVE",
"420 550 CURVE",
"420 550 OFFCURVE",
"375 550 OFFCURVE",
"420 517 CURVE",
"420 517 OFFCURVE",
"453 503 OFFCURVE",
"468 457 CURVE",
"468 457 OFFCURVE",
"498 366 OFFCURVE",
"636 395 CURVE",
"636 350 OFFCURVE",
"652 304 OFFCURVE",
"652 288 CURVE SMOOTH",
"652 288 OFFCURVE",
"636 273 OFFCURVE",
"604 273 CURVE",
"406 333 OFFCURVE",
"269 533 OFFCURVE",
"269 749 CURVE SMOOTH",
"269 1040 OFFCURVE",
"482 1255 OFFCURVE",
"774 1255 CURVE SMOOTH",
"1050 1255 OFFCURVE",
"1280 1040 OFFCURVE",
"1280 749 CURVE SMOOTH",
"1280 533 OFFCURVE",
"1127 333 OFFCURVE",
"926 273 CURVE"
);
},
{
closed = 1;
nodes = (
"636 426 OFFCURVE",
"636 426 OFFCURVE",
"636 426 CURVE SMOOTH",
"620 426 OFFCURVE",
"620 426 OFFCURVE",
"620 426 CURVE SMOOTH",
"620 443 OFFCURVE",
"620 443 OFFCURVE",
"620 443 CURVE SMOOTH",
"636 443 OFFCURVE",
"636 443 OFFCURVE",
"636 443 CURVE SMOOTH"
);
},
{
closed = 1;
nodes = (
"604 426 OFFCURVE",
"590 426 OFFCURVE",
"590 426 CURVE SMOOTH",
"590 426 OFFCURVE",
"575 426 OFFCURVE",
"575 426 CURVE",
"575 443 OFFCURVE",
"590 443 OFFCURVE",
"590 443 CURVE SMOOTH",
"590 443 OFFCURVE",
"604 443 OFFCURVE",
"604 426 CURVE"
);
},
{
closed = 1;
nodes = (
"559 426 OFFCURVE",
"559 426 OFFCURVE",
"544 426 CURVE SMOOTH",
"544 426 OFFCURVE",
"544 443 OFFCURVE",
"544 443 CURVE SMOOTH",
"544 443 OFFCURVE",
"544 443 OFFCURVE",
"544 443 CURVE SMOOTH",
"559 443 OFFCURVE",
"559 443 OFFCURVE",
"559 443 CURVE SMOOTH"
);
},
{
closed = 1;
nodes = (
"513 443 OFFCURVE",
"513 443 OFFCURVE",
"513 457 CURVE SMOOTH",
"498 457 OFFCURVE",
"498 457 OFFCURVE",
"513 472 CURVE SMOOTH",
"513 472 OFFCURVE",
"513 472 OFFCURVE",
"513 457 CURVE SMOOTH",
"529 457 OFFCURVE",
"529 457 OFFCURVE",
"529 457 CURVE"
);
},
{
closed = 1;
nodes = (
"498 472 OFFCURVE",
"482 472 OFFCURVE",
"482 488 CURVE SMOOTH",
"482 488 OFFCURVE",
"482 488 OFFCURVE",
"482 503 CURVE SMOOTH",
"482 503 OFFCURVE",
"498 503 OFFCURVE",
"498 488 CURVE SMOOTH",
"498 488 OFFCURVE",
"498 488 OFFCURVE",
"498 472 CURVE SMOOTH"
);
},
{
closed = 1;
nodes = (
"468 503 OFFCURVE",
"468 503 OFFCURVE",
"468 517 CURVE SMOOTH",
"468 517 OFFCURVE",
"468 517 OFFCURVE",
"468 517 CURVE SMOOTH",
"468 517 OFFCURVE",
"468 517 OFFCURVE",
"468 517 CURVE SMOOTH",
"482 517 OFFCURVE",
"482 503 OFFCURVE",
"468 503 CURVE SMOOTH"
);
},
{
closed = 1;
nodes = (
"453 533 OFFCURVE",
"453 533 OFFCURVE",
"453 533 CURVE SMOOTH",
"436 533 OFFCURVE",
"436 533 OFFCURVE",
"436 533 CURVE",
"436 533 OFFCURVE",
"453 533 OFFCURVE",
"453 533 CURVE SMOOTH",
"453 533 OFFCURVE",
"453 533 OFFCURVE",
"453 533 CURVE"
);
}
);
width = 1536;
}
);
unicode = F025;
},
{
glyphname = uniF026;
lastChange = "2013-04-27 22:25:18 +0000";
layers = (
{
layerId = "42DB7337-2365-47C1-9F22-9A1F4C2C0B2F";
name = Regular;
paths = (
{
closed = 1;
nodes = (
"0 158 OFFCURVE",
"319 -31 OFFCURVE",
"924 -31 CURVE SMOOTH",
"1524 -31 OFFCURVE",
"1847 156 OFFCURVE",
"1847 743 CURVE SMOOTH",
"1847 907 OFFCURVE",
"1797 1046 OFFCURVE",
"1698 1159 CURVE",
"1700 1163 LINE",
"1700 1165 LINE",
"1717 1212 OFFCURVE",
"1726 1268 OFFCURVE",
"1726 1331 CURVE SMOOTH",
"1726 1404 OFFCURVE",
"1709 1514 OFFCURVE",
"1677 1567 CURVE",
"1667 1567 LINE SMOOTH",
"1626 1567 OFFCURVE",
"1590 1563 OFFCURVE",
"1557 1555 CURVE SMOOTH",
"1500 1540 OFFCURVE",
"1439 1511 OFFCURVE",
"1376 1468 CURVE",
"1374 1467 OFFCURVE",
"1344 1446 OFFCURVE",
"1286 1407 CURVE",
"1189 1434 OFFCURVE",
"1069 1448 OFFCURVE",
"924 1448 CURVE SMOOTH",
"779 1448 OFFCURVE",
"658 1434 OFFCURVE",
"563 1407 CURVE",
"529 1429 OFFCURVE",
"499 1449 OFFCURVE",
"472 1468 CURVE SMOOTH",
"440 1489 OFFCURVE",
"411 1507 OFFCURVE",
"385 1520 CURVE SMOOTH",
"322 1551 OFFCURVE",
"254 1567 OFFCURVE",
"180 1567 CURVE SMOOTH",
"172 1567 LINE",
"139 1518 OFFCURVE",
"123 1419 OFFCURVE",
"123 1331 CURVE SMOOTH",
"123 1265 OFFCURVE",
"132 1210 OFFCURVE",
"150 1165 CURVE",
"147 1163 LINE",
"150 1159 LINE",
"50 1045 OFFCURVE",
"0 906 OFFCURVE",
"0 743 CURVE SMOOTH"
);
},
{
closed = 1;
nodes = (
"250 704 OFFCURVE",
"391 827 OFFCURVE",
"612 827 CURVE SMOOTH",
"667 827 OFFCURVE",
"720 825 OFFCURVE",
"769 820 CURVE SMOOTH",
"818 815 OFFCURVE",
"871 813 OFFCURVE",
"926 813 CURVE SMOOTH",
"981 813 OFFCURVE",
"1034 815 OFFCURVE",
"1083 820 CURVE SMOOTH",
"1132 825 OFFCURVE",
"1184 827 OFFCURVE",
"1239 827 CURVE SMOOTH",
"1458 827 OFFCURVE",
"1602 704 OFFCURVE",
"1602 487 CURVE SMOOTH",
"1602 247 OFFCURVE",
"1463 141 OFFCURVE",
"1232 109 CURVE SMOOTH",
"1161 99 OFFCURVE",
"1059 94 OFFCURVE",
"926 94 CURVE SMOOTH",
"794 94 OFFCURVE",
"743 93 OFFCURVE",
"628 109 CURVE SMOOTH",
"571 116 OFFCURVE",
"521 128 OFFCURVE",
"480 143 CURVE SMOOTH",
"327 199 OFFCURVE",
"250 312 OFFCURVE",
"250 483 CURVE SMOOTH"
);
},
{
closed = 1;
nodes = (
"503 606 OFFCURVE",
"494 568 OFFCURVE",
"494 524 CURVE SMOOTH",
"494 436 OFFCURVE",
"534 365 OFFCURVE",
"586 365 CURVE SMOOTH",
"638 365 OFFCURVE",
"680 436 OFFCURVE",
"680 524 CURVE SMOOTH",
"680 612 OFFCURVE",
"638 684 OFFCURVE",
"586 684 CURVE SMOOTH",
"560 684 OFFCURVE",
"538 668 OFFCURVE",
"521 637 CURVE SMOOTH"
);
},
{
closed = 1;
nodes = (
"816 195 OFFCURVE",
"867 154 OFFCURVE",
"924 154 CURVE SMOOTH",
"984 154 OFFCURVE",
"1034 194 OFFCURVE",
"1055 258 CURVE",
"1059 283 OFFCURVE",
"1027 297 OFFCURVE",
"1016 270 CURVE",
"1003 225 OFFCURVE",
"965 195 OFFCURVE",
"924 195 CURVE SMOOTH",
"880 194 OFFCURVE",
"849 219 OFFCURVE",
"831 270 CURVE",
"824 286 OFFCURVE",
"807 287 OFFCURVE",
"798 276 CURVE",
"793 271 OFFCURVE",
"792 265 OFFCURVE",
"795 258 CURVE"
);
},
{
closed = 1;
nodes = (
"870 354 OFFCURVE",
"864 361 OFFCURVE",
"864 369 CURVE SMOOTH",
"864 385 OFFCURVE",
"891 399 OFFCURVE",
"924 399 CURVE SMOOTH",
"956 399 OFFCURVE",
"983 385 OFFCURVE",
"983 369 CURVE SMOOTH",
"983 353 OFFCURVE",
"956 338 OFFCURVE",
"924 338 CURVE SMOOTH",
"908 338 OFFCURVE",
"894 341 OFFCURVE",
"882 348 CURVE"
);
},
{
closed = 1;
nodes = (
"1176 443 OFFCURVE",
"1167 480 OFFCURVE",
"1167 524 CURVE SMOOTH",
"1167 612 OFFCURVE",
"1210 684 OFFCURVE",
"1262 684 CURVE SMOOTH",
"1313 684 OFFCURVE",
"1354 612 OFFCURVE",
"1354 524 CURVE SMOOTH",
"1354 436 OFFCURVE",
"1314 365 OFFCURVE",
"1262 365 CURVE SMOOTH",
"1236 365 OFFCURVE",
"1214 381 OFFCURVE",
"1195 412 CURVE SMOOTH"
);
}
);
width = 1847;
}
);
unicode = F026;
},
{
glyphname = uniF027;
lastChange = "2013-04-27 22:25:34 +0000";
layers = (
{
layerId = "42DB7337-2365-47C1-9F22-9A1F4C2C0B2F";
name = Regular;
paths = (
{
closed = 1;
nodes = (
"170 1534 LINE SMOOTH",
"77 1534 OFFCURVE",
"0 1456 OFFCURVE",
"0 1364 CURVE SMOOTH",
"0 160 LINE SMOOTH",
"0 83 OFFCURVE",
"77 6 OFFCURVE",
"170 6 CURVE SMOOTH",
"1373 6 LINE SMOOTH",
"1466 6 OFFCURVE",
"1528 83 OFFCURVE",
"1528 160 CURVE SMOOTH",
"1528 1364 LINE SMOOTH",
"1528 1456 OFFCURVE",
"1466 1534 OFFCURVE",
"1373 1534 CURVE SMOOTH"
);
},
{
closed = 1;
nodes = (
"787 500 OFFCURVE",
"725 546 OFFCURVE",
"710 577 CURVE",
"710 577 OFFCURVE",
"679 438 OFFCURVE",
"663 407 CURVE SMOOTH",
"648 315 OFFCURVE",
"571 222 OFFCURVE",
"555 222 CURVE SMOOTH",
"555 207 OFFCURVE",
"540 222 OFFCURVE",
"540 222 CURVE SMOOTH",
"540 237 OFFCURVE",
"525 345 OFFCURVE",
"540 453 CURVE SMOOTH",
"555 500 OFFCURVE",
"617 777 OFFCURVE",
"617 777 CURVE SMOOTH",
"617 777 OFFCURVE",
"602 808 OFFCURVE",
"602 870 CURVE SMOOTH",
"602 963 OFFCURVE",
"663 1024 OFFCURVE",
"725 1024 CURVE SMOOTH",
"771 1024 OFFCURVE",
"802 978 OFFCURVE",
"802 932 CURVE SMOOTH",
"802 886 OFFCURVE",
"771 793 OFFCURVE",
"756 716 CURVE SMOOTH",
"741 654 OFFCURVE",
"787 608 OFFCURVE",
"849 608 CURVE SMOOTH",
"957 608 OFFCURVE",
"1034 747 OFFCURVE",
"1034 932 CURVE SMOOTH",
"1034 1055 OFFCURVE",
"941 1163 OFFCURVE",
"787 1163 CURVE SMOOTH",
"602 1163 OFFCURVE",
"494 1024 OFFCURVE",
"494 870 CURVE SMOOTH",
"494 824 OFFCURVE",
"509 777 OFFCURVE",
"525 747 CURVE SMOOTH",
"540 731 OFFCURVE",
"540 731 OFFCURVE",
"540 716 CURVE SMOOTH",
"540 700 OFFCURVE",
"525 685 OFFCURVE",
"525 669 CURVE SMOOTH",
"525 654 OFFCURVE",
"509 654 OFFCURVE",
"494 654 CURVE SMOOTH",
"417 685 OFFCURVE",
"370 777 OFFCURVE",
"370 886 CURVE SMOOTH",
"370 1055 OFFCURVE",
"509 1256 OFFCURVE",
"802 1256 CURVE SMOOTH",
"1034 1256 OFFCURVE",
"1173 1086 OFFCURVE",
"1173 916 CURVE SMOOTH",
"1173 685 OFFCURVE",
"1049 500 OFFCURVE",
"864 500 CURVE SMOOTH"
);
}
);
width = 1536;
}
);
unicode = F027;
},
{
glyphname = uniF028;
lastChange = "2013-04-27 22:26:27 +0000";
layers = (
{
layerId = "42DB7337-2365-47C1-9F22-9A1F4C2C0B2F";
name = Regular;
paths = (
{
closed = 1;
nodes = (
"0 444 OFFCURVE",
"196 158 OFFCURVE",
"477 37 CURVE",
"474 97 OFFCURVE",
"479 158 OFFCURVE",
"492 219 CURVE SMOOTH",
"498 244 OFFCURVE",
"504 270 OFFCURVE",
"510 299 CURVE SMOOTH",
"521 347 OFFCURVE",
"531 391 OFFCURVE",
"541 430 CURVE SMOOTH",
"546 449 OFFCURVE",
"554 483 OFFCURVE",
"566 533 CURVE SMOOTH",
"577 583 OFFCURVE",
"587 624 OFFCURVE",
"594 655 CURVE",
"587 668 OFFCURVE",
"582 682 OFFCURVE",
"579 697 CURVE",
"570 730 OFFCURVE",
"567 759 OFFCURVE",
"569 782 CURVE",
"569 899 OFFCURVE",
"635 987 OFFCURVE",
"723 987 CURVE SMOOTH",
"792 987 OFFCURVE",
"831 937 OFFCURVE",
"831 868 CURVE SMOOTH",
"831 832 OFFCURVE",
"822 789 OFFCURVE",
"805 738 CURVE SMOOTH",
"768 634 OFFCURVE",
"730 538 OFFCURVE",
"785 477 CURVE",
"811 446 OFFCURVE",
"845 430 OFFCURVE",
"887 430 CURVE SMOOTH",
"1032 430 OFFCURVE",
"1141 617 OFFCURVE",
"1141 856 CURVE SMOOTH",
"1141 1035 OFFCURVE",
"1016 1161 OFFCURVE",
"807 1161 CURVE SMOOTH",
"574 1161 OFFCURVE",
"414 990 OFFCURVE",
"414 778 CURVE SMOOTH",
"414 714 OFFCURVE",
"432 662 OFFCURVE",
"467 623 CURVE",
"482 600 OFFCURVE",
"482 602 OFFCURVE",
"479 578 CURVE",
"476 571 OFFCURVE",
"473 561 OFFCURVE",
"470 546 CURVE",
"469 543 OFFCURVE",
"469 539 OFFCURVE",
"468 534 CURVE SMOOTH",
"467 528 OFFCURVE",
"466 524 OFFCURVE",
"465 521 CURVE SMOOTH",
"464 518 OFFCURVE",
"462 514 OFFCURVE",
"461 510 CURVE",
"458 501 OFFCURVE",
"455 498 OFFCURVE",
"449 494 CURVE SMOOTH",
"446 492 OFFCURVE",
"442 491 OFFCURVE",
"438 491 CURVE SMOOTH",
"433 491 OFFCURVE",
"428 492 OFFCURVE",
"422 494 CURVE",
"314 538 OFFCURVE",
"258 654 OFFCURVE",
"258 799 CURVE SMOOTH",
"258 916 OFFCURVE",
"309 1039 OFFCURVE",
"402 1134 CURVE SMOOTH",
"510 1243 OFFCURVE",
"652 1298 OFFCURVE",
"829 1298 CURVE SMOOTH",
"978 1298 OFFCURVE",
"1101 1252 OFFCURVE",
"1197 1159 CURVE SMOOTH",
"1285 1074 OFFCURVE",
"1335 957 OFFCURVE",
"1335 840 CURVE SMOOTH",
"1335 525 OFFCURVE",
"1159 293 OFFCURVE",
"903 293 CURVE SMOOTH",
"819 293 OFFCURVE",
"741 336 OFFCURVE",
"709 393 CURVE",
"700 361 OFFCURVE",
"691 324 OFFCURVE",
"680 281 CURVE SMOOTH",
"670 239 OFFCURVE",
"665 217 OFFCURVE",
"664 215 CURVE",
"653 174 LINE SMOOTH",
"640 122 OFFCURVE",
"612 65 OFFCURVE",
"571 2 CURVE",
"650 -20 OFFCURVE",
"726 -31 OFFCURVE",
"799 -31 CURVE SMOOTH",
"1016 -31 OFFCURVE",
"1216 55 OFFCURVE",
"1364 203 CURVE SMOOTH",
"1511 350 OFFCURVE",
"1597 551 OFFCURVE",
"1597 768 CURVE SMOOTH",
"1597 985 OFFCURVE",
"1512 1186 OFFCURVE",
"1364 1334 CURVE SMOOTH",
"1216 1481 OFFCURVE",
"1016 1567 OFFCURVE",
"799 1567 CURVE SMOOTH",
"582 1567 OFFCURVE",
"381 1481 OFFCURVE",
"234 1334 CURVE SMOOTH",
"86 1186 OFFCURVE",
"0 985 OFFCURVE",
"0 768 CURVE SMOOTH"
);
}
);
width = 1597;
}
);
unicode = F028;
},
{
glyphname = uniF029;
lastChange = "2013-04-27 22:27:36 +0000";
layers = (
{
layerId = "42DB7337-2365-47C1-9F22-9A1F4C2C0B2F";
name = Regular;
paths = (
{
closed = 1;
nodes = (
"181 1533 LINE SMOOTH",
"90 1533 OFFCURVE",
"13 1456 OFFCURVE",
"13 1365 CURVE SMOOTH",
"13 172 LINE SMOOTH",
"13 80 OFFCURVE",
"90 5 OFFCURVE",
"181 5 CURVE SMOOTH",
"1373 5 LINE SMOOTH",
"1466 5 OFFCURVE",
"1526 80 OFFCURVE",
"1526 172 CURVE SMOOTH",
"1526 1365 LINE SMOOTH",
"1526 1456 OFFCURVE",
"1466 1533 OFFCURVE",
"1373 1533 CURVE SMOOTH"
);
},
{
closed = 1;
nodes = (
"640 386 LINE",
"211 1136 LINE",
"487 1136 LINE",
"777 570 LINE",
"1068 1136 LINE",
"1327 1136 LINE",
"931 386 LINE"
);
}
);
width = 1536;
}
);
unicode = F029;
},
{
glyphname = uniF030;
lastChange = "2013-04-27 22:29:01 +0000";
layers = (
{
layerId = "42DB7337-2365-47C1-9F22-9A1F4C2C0B2F";
name = Regular;
paths = (
{
closed = 1;
nodes = (
"407 1195 LINE",
"768 492 LINE",
"1132 1195 LINE",
"1459 1195 LINE",
"958 269 LINE",
"598 269 LINE",
"64 1195 LINE"
);
}
);
width = 1536;
}
);
unicode = F030;
},
{
glyphname = uniF031;
lastChange = "2013-04-27 22:30:42 +0000";
layers = (
{
layerId = "42DB7337-2365-47C1-9F22-9A1F4C2C0B2F";
name = Regular;
paths = (
{
closed = 1;
nodes = (
"498 1259 OFFCURVE",
"283 1044 OFFCURVE",
"283 767 CURVE SMOOTH",
"283 489 OFFCURVE",
"498 274 OFFCURVE",
"775 274 CURVE SMOOTH",
"1038 274 OFFCURVE",
"1269 489 OFFCURVE",
"1269 767 CURVE SMOOTH",
"1269 1044 OFFCURVE",
"1038 1259 OFFCURVE",
"775 1259 CURVE SMOOTH"
);
},
{
closed = 1;
nodes = (
"329 829 OFFCURVE",
"345 890 OFFCURVE",
"360 952 CURVE",
"575 366 LINE",
"437 443 OFFCURVE",
"329 581 OFFCURVE",
"329 767 CURVE SMOOTH"
);
},
{
closed = 1;
nodes = (
"730 320 OFFCURVE",
"684 320 OFFCURVE",
"652 335 CURVE",
"775 721 LINE",
"914 351 LINE",
"914 351 OFFCURVE",
"914 351 OFFCURVE",
"914 351 CURVE",
"868 335 OFFCURVE",
"821 320 OFFCURVE",
"775 320 CURVE SMOOTH"
);
},
{
closed = 1;
nodes = (
"853 981 OFFCURVE",
"884 981 OFFCURVE",
"884 981 CURVE",
"914 981 OFFCURVE",
"899 1013 OFFCURVE",
"884 1013 CURVE",
"884 1013 OFFCURVE",
"807 1013 OFFCURVE",
"761 1013 CURVE SMOOTH",
"714 1013 OFFCURVE",
"652 1013 OFFCURVE",
"652 1013 CURVE",
"621 1013 OFFCURVE",
"621 981 OFFCURVE",
"638 981 CURVE",
"638 981 OFFCURVE",
"668 981 OFFCURVE",
"684 967 CURVE",
"761 781 LINE",
"668 489 LINE",
"498 967 LINE",
"529 981 OFFCURVE",
"545 981 OFFCURVE",
"545 981 CURVE",
"575 981 OFFCURVE",
"575 1013 OFFCURVE",
"545 1013 CURVE",
"545 1013 OFFCURVE",
"468 1013 OFFCURVE",
"421 1013 CURVE SMOOTH",
"421 1013 OFFCURVE",
"406 1013 OFFCURVE",
"406 1013 CURVE",
"483 1136 OFFCURVE",
"621 1213 OFFCURVE",
"775 1213 CURVE SMOOTH",
"884 1213 OFFCURVE",
"991 1167 OFFCURVE",
"1069 1090 CURVE",
"1069 1090 OFFCURVE",
"1069 1090 OFFCURVE",
"1069 1090 CURVE SMOOTH",
"1023 1090 OFFCURVE",
"991 1059 OFFCURVE",
"991 1013 CURVE SMOOTH",
"991 981 OFFCURVE",
"1007 952 OFFCURVE",
"1038 904 CURVE SMOOTH",
"1053 875 OFFCURVE",
"1069 844 OFFCURVE",
"1069 781 CURVE SMOOTH",
"1069 752 OFFCURVE",
"1053 704 OFFCURVE",
"1038 643 CURVE SMOOTH",
"991 489 LINE",
"838 967 LINE"
);
},
{
closed = 1;
nodes = (
"1192 921 OFFCURVE",
"1223 844 OFFCURVE",
"1223 767 CURVE SMOOTH",
"1223 598 OFFCURVE",
"1130 458 OFFCURVE",
"991 381 CURVE",
"1130 767 LINE",
"1161 844 OFFCURVE",
"1161 890 OFFCURVE",
"1161 936 CURVE SMOOTH",
"1161 952 OFFCURVE",
"1161 967 OFFCURVE",
"1161 981 CURVE"
);
},
{
closed = 1;
nodes = (
"175 1536 LINE SMOOTH",
"83 1536 OFFCURVE",
"6 1459 OFFCURVE",
"6 1367 CURVE SMOOTH",
"6 166 LINE SMOOTH",
"6 74 OFFCURVE",
"83 -3 OFFCURVE",
"175 -3 CURVE SMOOTH",
"1376 -3 LINE SMOOTH",
"1469 -3 OFFCURVE",
"1531 74 OFFCURVE",
"1531 166 CURVE SMOOTH",
"1531 1367 LINE SMOOTH",
"1531 1459 OFFCURVE",
"1469 1536 OFFCURVE",
"1376 1536 CURVE SMOOTH"
);
},
{
closed = 1;
nodes = (
"468 212 OFFCURVE",
"220 458 OFFCURVE",
"220 767 CURVE SMOOTH",
"220 1075 OFFCURVE",
"468 1322 OFFCURVE",
"775 1322 CURVE SMOOTH",
"1084 1322 OFFCURVE",
"1330 1075 OFFCURVE",
"1330 767 CURVE SMOOTH",
"1330 458 OFFCURVE",
"1084 212 OFFCURVE",
"775 212 CURVE SMOOTH"
);
}
);
width = 1536;
}
);
unicode = F031;
},
{
glyphname = uniF032;
lastChange = "2013-04-27 22:31:24 +0000";
layers = (
{
layerId = "42DB7337-2365-47C1-9F22-9A1F4C2C0B2F";
name = Regular;
paths = (
{
closed = 1;
nodes = (
"232 552 OFFCURVE",
"357 368 OFFCURVE",
"533 284 CURVE",
"280 977 LINE",
"251 911 OFFCURVE",
"232 838 OFFCURVE",
"232 761 CURVE SMOOTH"
);
},
{
closed = 1;
nodes = (
"1120 853 OFFCURVE",
"1098 897 OFFCURVE",
"1076 933 CURVE SMOOTH",
"1050 977 OFFCURVE",
"1025 1014 OFFCURVE",
"1025 1058 CURVE SMOOTH",
"1025 1106 OFFCURVE",
"1061 1150 OFFCURVE",
"1113 1150 CURVE SMOOTH",
"1116 1150 OFFCURVE",
"1116 1150 OFFCURVE",
"1120 1150 CURVE",
"1025 1238 OFFCURVE",
"900 1289 OFFCURVE",
"764 1289 CURVE SMOOTH",
"577 1289 OFFCURVE",
"416 1194 OFFCURVE",
"320 1051 CURVE",
"335 1051 OFFCURVE",
"346 1051 OFFCURVE",
"353 1051 CURVE SMOOTH",
"412 1051 OFFCURVE",
"496 1058 OFFCURVE",
"496 1058 CURVE",
"526 1058 OFFCURVE",
"529 1018 OFFCURVE",
"500 1014 CURVE",
"500 1014 OFFCURVE",
"471 1010 OFFCURVE",
"438 1010 CURVE",
"632 434 LINE",
"746 783 LINE",
"665 1010 LINE",
"636 1010 OFFCURVE",
"610 1014 OFFCURVE",
"610 1014 CURVE",
"581 1014 OFFCURVE",
"584 1058 OFFCURVE",
"614 1058 CURVE",
"614 1058 OFFCURVE",
"702 1051 OFFCURVE",
"753 1051 CURVE SMOOTH",
"808 1051 OFFCURVE",
"893 1058 OFFCURVE",
"893 1058 CURVE",
"922 1058 OFFCURVE",
"926 1018 OFFCURVE",
"896 1014 CURVE",
"896 1014 OFFCURVE",
"867 1010 OFFCURVE",
"838 1010 CURVE",
"1028 442 LINE",
"1080 618 LINE SMOOTH",
"1102 691 OFFCURVE",
"1120 743 OFFCURVE",
"1120 787 CURVE SMOOTH"
);
},
{
closed = 1;
nodes = (
"614 255 LINE",
"662 240 OFFCURVE",
"713 233 OFFCURVE",
"764 233 CURVE SMOOTH",
"827 233 OFFCURVE",
"885 244 OFFCURVE",
"940 262 CURVE",
"937 262 OFFCURVE",
"937 266 OFFCURVE",
"937 269 CURVE",
"772 713 LINE"
);
},
{
closed = 1;
nodes = (
"401 1417 OFFCURVE",
"104 1124 OFFCURVE",
"104 761 CURVE SMOOTH",
"104 398 OFFCURVE",
"401 101 OFFCURVE",
"764 101 CURVE SMOOTH",
"1127 101 OFFCURVE",
"1421 398 OFFCURVE",
"1421 761 CURVE SMOOTH",
"1421 1124 OFFCURVE",
"1127 1417 OFFCURVE",
"764 1417 CURVE SMOOTH"
);
},
{
closed = 1;
nodes = (
"438 174 OFFCURVE",
"174 434 OFFCURVE",
"174 761 CURVE SMOOTH",
"174 1084 OFFCURVE",
"438 1348 OFFCURVE",
"764 1348 CURVE SMOOTH",
"1087 1348 OFFCURVE",
"1351 1084 OFFCURVE",
"1351 761 CURVE SMOOTH",
"1351 434 OFFCURVE",
"1087 174 OFFCURVE",
"764 174 CURVE SMOOTH"
);
},
{
closed = 1;
nodes = (
"1230 999 OFFCURVE",
"1230 981 OFFCURVE",
"1230 959 CURVE SMOOTH",
"1230 908 OFFCURVE",
"1223 845 OFFCURVE",
"1190 772 CURVE",
"1028 302 LINE",
"1186 394 OFFCURVE",
"1292 566 OFFCURVE",
"1292 761 CURVE SMOOTH",
"1292 853 OFFCURVE",
"1270 941 OFFCURVE",
"1226 1014 CURVE"
);
}
);
width = 1536;
}
);
unicode = F032;
},
{
glyphname = uniF033;
lastChange = "2013-04-27 22:32:46 +0000";
layers = (
{
layerId = "42DB7337-2365-47C1-9F22-9A1F4C2C0B2F";
name = Regular;
paths = (
{
closed = 1;
nodes = (
"498 1085 OFFCURVE",
"451 1009 OFFCURVE",
"467 932 CURVE SMOOTH",
"482 839 OFFCURVE",
"543 776 OFFCURVE",
"605 761 CURVE SMOOTH",
"667 761 OFFCURVE",
"714 839 OFFCURVE",
"698 916 CURVE SMOOTH",
"698 1009 OFFCURVE",
"637 1069 OFFCURVE",
"558 1085 CURVE SMOOTH"
);
},
{
closed = 1;
nodes = (
"498 607 OFFCURVE",
"405 545 OFFCURVE",
"405 467 CURVE SMOOTH",
"405 391 OFFCURVE",
"482 329 OFFCURVE",
"574 329 CURVE SMOOTH",
"714 329 OFFCURVE",
"760 391 OFFCURVE",
"760 467 CURVE SMOOTH",
"760 467 OFFCURVE",
"760 483 OFFCURVE",
"760 483 CURVE SMOOTH",
"745 529 OFFCURVE",
"714 545 OFFCURVE",
"667 591 CURVE",
"637 591 OFFCURVE",
"621 607 OFFCURVE",
"590 607 CURVE SMOOTH"
);
},
{
closed = 1;
nodes = (
"158 1534 LINE SMOOTH",
"65 1534 OFFCURVE",
"2 1457 OFFCURVE",
"2 1379 CURVE SMOOTH",
"2 173 LINE SMOOTH",
"2 80 OFFCURVE",
"65 4 OFFCURVE",
"158 4 CURVE SMOOTH",
"1363 4 LINE SMOOTH",
"1456 4 OFFCURVE",
"1532 80 OFFCURVE",
"1532 173 CURVE SMOOTH",
"1532 1379 LINE SMOOTH",
"1532 1457 OFFCURVE",
"1456 1534 OFFCURVE",
"1363 1534 CURVE SMOOTH"
);
},
{
closed = 1;
nodes = (
"791 869 OFFCURVE",
"760 823 OFFCURVE",
"729 792 CURVE SMOOTH",
"683 761 OFFCURVE",
"667 745 OFFCURVE",
"667 716 CURVE SMOOTH",
"667 700 OFFCURVE",
"714 653 OFFCURVE",
"745 637 CURVE SMOOTH",
"807 591 OFFCURVE",
"838 545 OFFCURVE",
"838 467 CURVE SMOOTH",
"838 375 OFFCURVE",
"745 283 OFFCURVE",
"574 283 CURVE SMOOTH",
"435 283 OFFCURVE",
"311 344 OFFCURVE",
"311 436 CURVE SMOOTH",
"311 529 OFFCURVE",
"420 623 OFFCURVE",
"574 623 CURVE SMOOTH",
"590 623 OFFCURVE",
"605 623 OFFCURVE",
"621 623 CURVE",
"590 637 OFFCURVE",
"574 669 OFFCURVE",
"574 700 CURVE SMOOTH",
"574 716 OFFCURVE",
"590 729 OFFCURVE",
"590 745 CURVE",
"590 745 OFFCURVE",
"574 745 OFFCURVE",
"574 745 CURVE SMOOTH",
"451 745 OFFCURVE",
"374 823 OFFCURVE",
"374 932 CURVE SMOOTH",
"374 1025 OFFCURVE",
"482 1116 OFFCURVE",
"590 1116 CURVE SMOOTH",
"651 1116 OFFCURVE",
"854 1116 OFFCURVE",
"854 1116 CURVE",
"791 1069 LINE",
"714 1069 LINE",
"760 1055 OFFCURVE",
"791 993 OFFCURVE",
"791 932 CURVE SMOOTH"
);
},
{
closed = 1;
nodes = (
"1141 906 LINE",
"1141 745 LINE",
"1090 745 LINE",
"1090 906 LINE",
"914 906 LINE",
"914 957 LINE",
"1090 957 LINE",
"1090 1116 LINE",
"1141 1116 LINE",
"1141 957 LINE",
"1300 957 LINE",
"1300 906 LINE"
);
}
);
width = 1536;
}
);
unicode = F033;
},
{
glyphname = uniF034;
lastChange = "2013-04-27 22:32:47 +0000";
layers = (
{
layerId = "42DB7337-2365-47C1-9F22-9A1F4C2C0B2F";
name = Regular;
paths = (
{
closed = 1;
nodes = (
"0 67 OFFCURVE",
"217 -31 OFFCURVE",
"430 -31 CURVE SMOOTH",
"702 -31 OFFCURVE",
"958 109 OFFCURVE",
"958 358 CURVE SMOOTH",
"958 423 OFFCURVE",
"943 477 OFFCURVE",
"914 520 CURVE SMOOTH",
"895 547 OFFCURVE",
"870 575 OFFCURVE",
"852 594 CURVE SMOOTH",
"843 603 OFFCURVE",
"831 615 OFFCURVE",
"816 628 CURVE SMOOTH",
"801 641 OFFCURVE",
"791 650 OFFCURVE",
"784 656 CURVE SMOOTH",
"777 662 OFFCURVE",
"766 672 OFFCURVE",
"750 685 CURVE SMOOTH",
"734 698 OFFCURVE",
"724 706 OFFCURVE",
"720 709 CURVE",
"691 734 OFFCURVE",
"676 762 OFFCURVE",
"676 791 CURVE SMOOTH",
"676 854 OFFCURVE",
"709 871 OFFCURVE",
"781 940 CURVE SMOOTH",
"846 1004 OFFCURVE",
"887 1071 OFFCURVE",
"887 1184 CURVE SMOOTH",
"887 1297 OFFCURVE",
"837 1407 OFFCURVE",
"745 1462 CURVE",
"872 1462 LINE",
"999 1536 LINE",
"588 1536 LINE SMOOTH",
"529 1536 OFFCURVE",
"471 1530 OFFCURVE",
"412 1518 CURVE SMOOTH",
"237 1477 OFFCURVE",
"102 1320 OFFCURVE",
"102 1147 CURVE SMOOTH",
"102 964 OFFCURVE",
"253 825 OFFCURVE",
"442 825 CURVE SMOOTH",
"477 825 LINE SMOOTH",
"489 825 OFFCURVE",
"500 826 OFFCURVE",
"510 829 CURVE",
"496 792 OFFCURVE",
"489 765 OFFCURVE",
"489 748 CURVE SMOOTH",
"489 705 OFFCURVE",
"509 658 OFFCURVE",
"549 608 CURVE",
"272 600 OFFCURVE",
"0 499 OFFCURVE",
"0 262 CURVE SMOOTH"
);
},
{
closed = 1;
nodes = (
"174 476 OFFCURVE",
"356 553 OFFCURVE",
"545 553 CURVE SMOOTH",
"568 553 OFFCURVE",
"587 552 OFFCURVE",
"604 549 CURVE",
"751 450 OFFCURVE",
"825 393 OFFCURVE",
"825 276 CURVE SMOOTH",
"825 127 OFFCURVE",
"691 55 OFFCURVE",
"528 55 CURVE SMOOTH",
"349 55 OFFCURVE",
"174 143 OFFCURVE",
"174 307 CURVE SMOOTH"
);
},
{
closed = 1;
nodes = (
"276 1368 OFFCURVE",
"341 1468 OFFCURVE",
"461 1468 CURVE SMOOTH",
"621 1468 OFFCURVE",
"711 1261 OFFCURVE",
"711 1090 CURVE SMOOTH",
"711 965 OFFCURVE",
"659 881 OFFCURVE",
"539 881 CURVE SMOOTH",
"384 881 OFFCURVE",
"276 1082 OFFCURVE",
"276 1247 CURVE SMOOTH"
);
},
{
closed = 1;
nodes = (
"999 1206 LINE",
"999 1311 LINE",
"1214 1311 LINE",
"1214 1528 LINE",
"1321 1528 LINE",
"1321 1311 LINE",
"1536 1311 LINE",
"1536 1206 LINE",
"1321 1206 LINE",
"1321 991 LINE",
"1214 991 LINE",
"1214 1206 LINE"
);
}
);
width = 1536;
}
);
unicode = F034;
},
{
glyphname = uniF035;
lastChange = "2013-04-27 22:33:34 +0000";
layers = (
{
layerId = "42DB7337-2365-47C1-9F22-9A1F4C2C0B2F";
name = Regular;
paths = (
{
closed = 1;
nodes = (
"541 1173 OFFCURVE",
"356 988 OFFCURVE",
"356 761 CURVE SMOOTH",
"356 534 OFFCURVE",
"541 355 OFFCURVE",
"768 355 CURVE SMOOTH",
"988 355 OFFCURVE",
"1174 534 OFFCURVE",
"1174 761 CURVE SMOOTH",
"1174 988 OFFCURVE",
"988 1173 OFFCURVE",
"768 1173 CURVE SMOOTH"
);
},
{
closed = 1;
nodes = (
"906 568 OFFCURVE",
"906 554 OFFCURVE",
"892 554 CURVE SMOOTH",
"638 554 LINE SMOOTH",
"617 554 OFFCURVE",
"617 568 OFFCURVE",
"617 568 CURVE",
"576 706 LINE",
"961 706 LINE",
"906 568 LINE"
);
},
{
closed = 1;
nodes = (
"1009 802 OFFCURVE",
"1002 802 OFFCURVE",
"995 809 CURVE",
"961 719 LINE",
"569 719 LINE",
"535 809 LINE",
"528 802 OFFCURVE",
"521 802 OFFCURVE",
"514 802 CURVE SMOOTH",
"486 802 OFFCURVE",
"466 823 OFFCURVE",
"466 850 CURVE SMOOTH",
"466 871 OFFCURVE",
"486 891 OFFCURVE",
"514 891 CURVE SMOOTH",
"541 891 OFFCURVE",
"562 871 OFFCURVE",
"562 850 CURVE SMOOTH",
"562 836 OFFCURVE",
"555 823 OFFCURVE",
"548 816 CURVE",
"610 781 OFFCURVE",
"713 795 OFFCURVE",
"761 885 CURVE",
"734 885 OFFCURVE",
"720 905 OFFCURVE",
"720 926 CURVE SMOOTH",
"720 953 OFFCURVE",
"741 974 OFFCURVE",
"768 974 CURVE SMOOTH",
"789 974 OFFCURVE",
"810 953 OFFCURVE",
"810 926 CURVE SMOOTH",
"810 905 OFFCURVE",
"796 885 OFFCURVE",
"768 885 CURVE",
"817 795 OFFCURVE",
"920 781 OFFCURVE",
"982 816 CURVE",
"975 823 OFFCURVE",
"968 836 OFFCURVE",
"968 850 CURVE SMOOTH",
"968 871 OFFCURVE",
"988 891 OFFCURVE",
"1016 891 CURVE SMOOTH",
"1044 891 OFFCURVE",
"1064 871 OFFCURVE",
"1064 850 CURVE SMOOTH",
"1064 823 OFFCURVE",
"1044 802 OFFCURVE",
"1016 802 CURVE SMOOTH"
);
},
{
closed = 1;
nodes = (
"163 1531 LINE SMOOTH",
"74 1531 OFFCURVE",
"-2 1455 OFFCURVE",
"-2 1366 CURVE SMOOTH",
"-2 162 LINE SMOOTH",
"-2 73 OFFCURVE",
"74 -3 OFFCURVE",
"163 -3 CURVE SMOOTH",
"1367 -3 LINE SMOOTH",
"1456 -3 OFFCURVE",
"1532 73 OFFCURVE",
"1532 162 CURVE SMOOTH",
"1532 1366 LINE SMOOTH",
"1532 1455 OFFCURVE",
"1456 1531 OFFCURVE",
"1367 1531 CURVE SMOOTH"
);
},
{
closed = 1;
nodes = (
"486 265 OFFCURVE",
"266 486 OFFCURVE",
"266 761 CURVE SMOOTH",
"266 1036 OFFCURVE",
"486 1263 OFFCURVE",
"768 1263 CURVE SMOOTH",
"1044 1263 OFFCURVE",
"1264 1036 OFFCURVE",
"1264 761 CURVE SMOOTH",
"1264 486 OFFCURVE",
"1044 265 OFFCURVE",
"768 265 CURVE SMOOTH"
);
}
);
width = 1536;
}
);
unicode = F035;
},
{
glyphname = uniF036;
lastChange = "2013-04-27 22:34:34 +0000";
layers = (
{
layerId = "42DB7337-2365-47C1-9F22-9A1F4C2C0B2F";
name = Regular;
paths = (
{
closed = 1;
nodes = (
"491 694 LINE",
"1037 694 LINE",
"969 491 LINE",
"969 491 OFFCURVE",
"965 475 OFFCURVE",
"941 475 CURVE SMOOTH",
"586 475 LINE SMOOTH",
"559 475 OFFCURVE",
"554 499 OFFCURVE",
"554 499 CURVE"
);
},
{
closed = 1;
nodes = (
"1108 829 OFFCURVE",
"1100 829 OFFCURVE",
"1092 833 CURVE",
"1044 714 LINE",
"483 714 LINE",
"439 833 LINE",
"428 829 OFFCURVE",
"419 829 OFFCURVE",
"407 829 CURVE SMOOTH",
"371 829 OFFCURVE",
"344 857 OFFCURVE",
"344 893 CURVE SMOOTH",
"344 929 OFFCURVE",
"371 961 OFFCURVE",
"407 961 CURVE SMOOTH",
"443 961 OFFCURVE",
"475 929 OFFCURVE",
"475 893 CURVE SMOOTH",
"475 877 OFFCURVE",
"467 857 OFFCURVE",
"455 850 CURVE",
"542 794 OFFCURVE",
"694 821 OFFCURVE",
"757 941 CURVE",
"721 945 OFFCURVE",
"698 973 OFFCURVE",
"698 1005 CURVE SMOOTH",
"698 1041 OFFCURVE",
"730 1068 OFFCURVE",
"766 1068 CURVE SMOOTH",
"801 1068 OFFCURVE",
"829 1041 OFFCURVE",
"829 1005 CURVE SMOOTH",
"829 973 OFFCURVE",
"805 945 OFFCURVE",
"774 941 CURVE",
"834 821 OFFCURVE",
"984 794 OFFCURVE",
"1072 850 CURVE",
"1061 857 OFFCURVE",
"1052 877 OFFCURVE",
"1052 893 CURVE SMOOTH",
"1052 929 OFFCURVE",
"1084 961 OFFCURVE",
"1120 961 CURVE SMOOTH",
"1156 961 OFFCURVE",
"1184 929 OFFCURVE",
"1184 893 CURVE SMOOTH",
"1184 857 OFFCURVE",
"1156 829 OFFCURVE",
"1120 829 CURVE"
);
},
{
closed = 1;
nodes = (
"443 1350 OFFCURVE",
"184 1092 OFFCURVE",
"184 773 CURVE SMOOTH",
"184 451 OFFCURVE",
"443 193 OFFCURVE",
"766 193 CURVE SMOOTH",
"1084 193 OFFCURVE",
"1343 451 OFFCURVE",
"1343 773 CURVE SMOOTH",
"1343 1092 OFFCURVE",
"1084 1350 OFFCURVE",
"766 1350 CURVE"
);
},
{
closed = 1;
nodes = (
"375 65 OFFCURVE",
"57 384 OFFCURVE",
"57 773 CURVE SMOOTH",
"57 1164 OFFCURVE",
"375 1478 OFFCURVE",
"766 1478 CURVE SMOOTH",
"1156 1478 OFFCURVE",
"1470 1164 OFFCURVE",
"1470 773 CURVE SMOOTH",
"1470 384 OFFCURVE",
"1156 65 OFFCURVE",
"766 65 CURVE"
);
}
);
width = 1536;
}
);
unicode = F036;
},
{
glyphname = uniF037;
lastChange = "2013-04-27 22:35:34 +0000";
layers = (
{
layerId = "42DB7337-2365-47C1-9F22-9A1F4C2C0B2F";
name = Regular;
paths = (
{
closed = 1;
nodes = (
"773 870 LINE SMOOTH",
"788 870 OFFCURVE",
"819 901 OFFCURVE",
"819 931 CURVE SMOOTH",
"819 962 OFFCURVE",
"788 977 OFFCURVE",
"773 977 CURVE SMOOTH",
"618 977 LINE SMOOTH",
"587 977 OFFCURVE",
"556 962 OFFCURVE",
"556 931 CURVE SMOOTH",
"556 901 OFFCURVE",
"587 870 OFFCURVE",
"618 870 CURVE SMOOTH"
);
},
{
closed = 1;
nodes = (
"618 669 LINE SMOOTH",
"587 669 OFFCURVE",
"556 639 OFFCURVE",
"556 607 CURVE SMOOTH",
"556 576 OFFCURVE",
"587 561 OFFCURVE",
"618 561 CURVE SMOOTH",
"927 561 LINE SMOOTH",
"957 561 OFFCURVE",
"973 576 OFFCURVE",
"973 607 CURVE SMOOTH",
"973 639 OFFCURVE",
"957 669 OFFCURVE",
"927 669 CURVE SMOOTH"
);
},
{
closed = 1;
nodes = (
"170 1533 LINE SMOOTH",
"78 1533 OFFCURVE",
"0 1456 OFFCURVE",
"0 1364 CURVE SMOOTH",
"0 160 LINE SMOOTH",
"0 83 OFFCURVE",
"78 5 OFFCURVE",
"170 5 CURVE SMOOTH",
"1375 5 LINE SMOOTH",
"1467 5 OFFCURVE",
"1529 83 OFFCURVE",
"1529 160 CURVE SMOOTH",
"1529 1364 LINE SMOOTH",
"1529 1456 OFFCURVE",
"1467 1533 OFFCURVE",
"1375 1533 CURVE SMOOTH"
);
},
{
closed = 1;
nodes = (
"1204 453 OFFCURVE",
"1081 329 OFFCURVE",
"927 329 CURVE SMOOTH",
"602 329 LINE SMOOTH",
"464 329 OFFCURVE",
"340 453 OFFCURVE",
"340 607 CURVE SMOOTH",
"340 931 LINE SMOOTH",
"340 1085 OFFCURVE",
"464 1209 OFFCURVE",
"602 1209 CURVE SMOOTH",
"803 1209 LINE",
"865 1194 OFFCURVE",
"973 1132 OFFCURVE",
"1020 1055 CURVE SMOOTH",
"1020 1024 OFFCURVE",
"1035 1024 OFFCURVE",
"1035 962 CURVE SMOOTH",
"1050 931 OFFCURVE",
"1050 901 OFFCURVE",
"1066 886 CURVE SMOOTH",
"1081 870 OFFCURVE",
"1158 886 OFFCURVE",
"1174 870 CURVE SMOOTH",
"1189 854 LINE",
"1204 839 LINE",
"1204 823 LINE",
"1204 607 LINE SMOOTH"
);
}
);
width = 1536;
}
);
unicode = F037;
},
{
glyphname = uniF038;
lastChange = "2013-04-27 22:36:27 +0000";
layers = (
{
layerId = "42DB7337-2365-47C1-9F22-9A1F4C2C0B2F";
name = Regular;
paths = (
{
closed = 1;
nodes = (
"1463 915 LINE",
"1445 928 LINE SMOOTH",
"1418 951 OFFCURVE",
"1289 928 OFFCURVE",
"1252 961 CURVE SMOOTH",
"1224 983 OFFCURVE",
"1224 1026 OFFCURVE",
"1215 1080 CURVE SMOOTH",
"1202 1190 OFFCURVE",
"1192 1194 OFFCURVE",
"1174 1231 CURVE SMOOTH",
"1114 1364 OFFCURVE",
"944 1466 OFFCURVE",
"830 1479 CURVE",
"516 1479 LINE SMOOTH",
"268 1479 OFFCURVE",
"67 1278 OFFCURVE",
"67 1029 CURVE SMOOTH",
"67 505 LINE SMOOTH",
"67 262 OFFCURVE",
"268 60 OFFCURVE",
"516 60 CURVE SMOOTH",
"1032 60 LINE SMOOTH",
"1275 60 OFFCURVE",
"1477 262 OFFCURVE",
"1477 505 CURVE SMOOTH",
"1482 868 LINE",
"1477 887 LINE"
);
},
{
closed = 1;
nodes = (
"769 1111 LINE SMOOTH",
"816 1111 OFFCURVE",
"856 1070 OFFCURVE",
"856 1026 CURVE SMOOTH",
"856 979 OFFCURVE",
"816 942 OFFCURVE",
"769 942 CURVE SMOOTH",
"521 942 LINE SMOOTH",
"471 942 OFFCURVE",
"434 979 OFFCURVE",
"434 1026 CURVE SMOOTH",
"434 1070 OFFCURVE",
"471 1111 OFFCURVE",
"521 1111 CURVE SMOOTH"
);
},
{
closed = 1;
nodes = (
"521 428 LINE SMOOTH",
"471 428 OFFCURVE",
"434 464 OFFCURVE",
"434 516 CURVE SMOOTH",
"434 561 OFFCURVE",
"471 597 OFFCURVE",
"521 597 CURVE SMOOTH",
"1027 597 LINE SMOOTH",
"1073 597 OFFCURVE",
"1109 561 OFFCURVE",
"1109 516 CURVE SMOOTH",
"1109 464 OFFCURVE",
"1073 428 OFFCURVE",
"1027 428 CURVE SMOOTH"
);
}
